<svg xmlns="http://www.w3.org/2000/svg" xmlns:xlink="http://www.w3.org/1999/xlink" width="800" height="800" fill="none" viewBox="0 0 800 800">
  <g class="Referral code banner-Square" clip-path="url(#clip0_2_236)">
    <path fill="#3CEAAA" d="M0 0h800v800H0z"/>
    <path fill="#000" d="M735.913-397.812a13.492 13.492 0 0111.245 10.053l147.169 581.066c1.829 7.223-2.543 14.561-9.766 16.39L431.467 324.454c-7.222 1.83-14.56-2.542-16.39-9.765L267.899-266.412a13.492 13.492 0 015.064-14.165l201.993-149.156a13.489 13.489 0 019.846-2.513l251.111 34.434z" class="Rectangle 672"/>
    <path fill="#fff" stroke="#000" stroke-width="1.754" d="M637.123 167.722v582.787c0 6.967-5.647 12.614-12.614 12.614H176.491c-6.967 0-12.614-5.647-12.614-12.614V167.685c0-5.037 2.996-9.591 7.622-11.584L394.29 60.094a12.615 12.615 0 019.94-.019l225.227 96.044a12.613 12.613 0 017.666 11.603z" class="Rectangle 671"/>
    <g style="mix-blend-mode:darken" class="Rectangle 678">
      <rect width="449" height="341" x="175" y="411" fill="#CBB9FF" rx="9"/>
      <rect width="449" height="341" x="175" y="411" stroke="#747474" stroke-dasharray="4 4" stroke-linejoin="round" rx="9"/>
    </g>
    <path fill="#3CEAAA" stroke="#000" stroke-width="1.3" d="M400 120.35c-6.268 0-11.35-5.082-11.35-11.35s5.082-11.35 11.35-11.35 11.35 5.082 11.35 11.35-5.082 11.35-11.35 11.35z" class="Ellipse 202"/>
    <path fill="#3CEAAA" d="M213.906 225h6.116v-13.328h5.797L234.081 225h6.756l-8.536-13.785c3.788-.958 6.345-4.382 6.345-8.535 0-5.387-4.109-8.993-10.179-8.993h-14.561V225zm6.116-18.806v-7.029h8.445c2.51 0 4.199 1.415 4.199 3.515 0 2.099-1.689 3.514-4.199 3.514h-8.445zm33.722 19.445c5.569 0 10.316-3.378 11.823-8.399h-5.569c-1.05 2.283-3.56 3.835-6.254 3.835-3.56 0-6.299-2.42-6.801-5.98h18.715l.456-.456v-1.05c0-7.212-4.975-12.051-12.37-12.051-7.394 0-12.369 4.839-12.369 12.051s4.975 12.05 12.369 12.05zm-6.436-15.109a6.884 6.884 0 016.436-4.427 6.882 6.882 0 016.436 4.427h-12.872zm24.02 14.47h5.477v-18.258h4.793v-4.565h-4.793v-2.556c0-1.186.822-2.008 2.009-2.008h2.784v-3.926c-.593-.365-1.871-.639-3.241-.639-4.199 0-7.029 2.648-7.029 6.619v2.51h-3.652v4.565h3.652V225zm22.846.639c5.569 0 10.316-3.378 11.822-8.399h-5.568c-1.05 2.283-3.561 3.835-6.254 3.835-3.56 0-6.299-2.42-6.801-5.98h18.715l.456-.456v-1.05c0-7.212-4.975-12.051-12.37-12.051-7.394 0-12.37 4.839-12.37 12.051s4.976 12.05 12.37 12.05zm-6.436-15.109a6.883 6.883 0 016.436-4.427 6.882 6.882 0 016.436 4.427h-12.872zM309.819 225h5.478v-13.511c0-3.058 2.419-5.112 6.07-5.112h1.872v-4.2c-.639-.273-1.598-.456-2.419-.456-2.1 0-4.337 1.278-5.523 3.15v-2.694h-5.478V225zm16.359 0h5.478v-13.511c0-3.058 2.419-5.112 6.07-5.112h1.872v-4.2c-.639-.273-1.598-.456-2.419-.456-2.1 0-4.337 1.278-5.523 3.15v-2.694h-5.478V225zm25.487.639c2.693 0 5.66-1.232 7.394-3.104V225h5.478v-22.823h-5.478v2.465c-1.734-1.871-4.701-3.104-7.394-3.104-7.121 0-11.868 4.839-11.868 12.051s4.747 12.05 11.868 12.05zm.547-4.838c-4.153 0-6.938-2.876-6.938-7.212 0-4.337 2.785-7.212 6.938-7.212 4.108 0 6.847 2.875 6.847 7.212 0 4.336-2.739 7.212-6.847 7.212zM368.748 225h5.477v-31.313h-5.477V225zm9.673 0h6.755v-6.755h-6.755V225zm24.02-23.462c-2.785 0-5.843 1.278-7.578 3.15v-2.511h-5.477v31.313h5.477v-11c1.735 1.871 4.793 3.149 7.578 3.149 7.211 0 12.05-4.838 12.05-12.05 0-7.212-4.839-12.051-12.05-12.051zm-.548 4.839c4.245 0 7.12 2.875 7.12 7.212 0 4.336-2.875 7.212-7.12 7.212-4.2 0-7.03-2.876-7.03-7.212 0-4.337 2.83-7.212 7.03-7.212zm27.344 19.262c5.569 0 10.316-3.378 11.823-8.399h-5.569c-1.05 2.283-3.561 3.835-6.254 3.835-3.56 0-6.299-2.42-6.801-5.98h18.715l.456-.456v-1.05c0-7.212-4.975-12.051-12.37-12.051-7.394 0-12.369 4.839-12.369 12.051s4.975 12.05 12.369 12.05zm-6.436-15.109a6.884 6.884 0 016.436-4.427 6.882 6.882 0 016.436 4.427h-12.872zM444.882 225h5.478v-13.511c0-3.058 2.419-5.112 6.07-5.112h1.872v-4.2c-.639-.273-1.598-.456-2.419-.456-2.1 0-4.337 1.278-5.523 3.15v-2.694h-5.478V225zm29.86-23.462c-2.785 0-5.843 1.278-7.577 3.15v-2.511h-5.478v31.313h5.478v-11c1.734 1.871 4.792 3.149 7.577 3.149 7.212 0 12.05-4.838 12.05-12.05 0-7.212-4.838-12.051-12.05-12.051zm-.548 4.839c4.245 0 7.121 2.875 7.121 7.212 0 4.336-2.876 7.212-7.121 7.212-4.199 0-7.029-2.876-7.029-7.212 0-4.337 2.83-7.212 7.029-7.212zM488.254 225h6.756v-6.755h-6.756V225zm22.423.639c6.207 0 11-3.971 11.959-9.905h-5.25c-.684 3.013-3.377 5.067-6.709 5.067-4.109 0-6.893-2.876-6.893-7.212 0-4.337 2.784-7.212 6.893-7.212 3.286 0 5.933 1.963 6.664 4.838h5.249c-1.004-5.797-5.797-9.677-11.913-9.677-7.395 0-12.37 4.839-12.37 12.051s4.975 12.05 12.37 12.05zm26.7 0c7.395 0 12.37-4.838 12.37-12.05 0-7.212-4.975-12.051-12.37-12.051-7.394 0-12.37 4.839-12.37 12.051s4.976 12.05 12.37 12.05zm0-4.838c-4.108 0-6.892-2.876-6.892-7.212 0-4.337 2.784-7.212 6.892-7.212 4.108 0 6.893 2.875 6.893 7.212 0 4.336-2.785 7.212-6.893 7.212zM552.576 225h5.478v-15.382c0-1.917 1.689-3.241 4.153-3.241 2.465 0 4.154 1.324 4.154 3.241V225h5.477v-15.382c0-1.917 1.689-3.241 4.154-3.241s4.154 1.324 4.154 3.241V225h5.477v-15.93c0-4.519-3.651-7.532-9.083-7.532-2.511 0-5.249 1.096-6.847 2.739-1.552-1.643-3.971-2.739-6.071-2.739-2.054 0-4.29 1.096-5.568 2.693v-2.054h-5.478V225z" class="Referral.perp.com"/>
    <g class="Logo dark bw">
      <g class="Logo" clip-path="url(#clip1_2_236)">
        <g class="logo / symbolized vector">
          <g class="vector">
            <path fill="#fff" fill-rule="evenodd" d="M304.067 20.79a3.52 3.52 0 014.926 0l3.239 3.174a3.519 3.519 0 010 5.028l-5.645 5.53 4.049 3.966a1.955 1.955 0 01-2.737 2.794l-9.808-9.609a3.519 3.519 0 010-5.028l5.976-5.854zm-.274 10.995l5.418-5.307-2.681-2.626-5.418 5.307 2.681 2.626z" class="Vector 1 (Stroke)" clip-rule="evenodd"/>
            <path fill="#fff" fill-rule="evenodd" d="M312.279 23.472a3.52 3.52 0 014.926 0l3.239 3.173a3.519 3.519 0 010 5.028l-9.808 9.609a1.955 1.955 0 01-2.737-2.794l4.049-3.966-2.908-2.849a3.519 3.519 0 010-5.028l3.239-3.173zm2.463 8.313l2.681-2.626-2.681-2.625-2.681 2.625 2.681 2.626z" class="Vector 12 (Stroke)" clip-rule="evenodd"/>
            <path fill="#fff" d="M312.06 29.166l-2.847-2.705-2.732 2.683 2.78 2.765 2.799-2.743z" class="Vector 11" opacity=".95"/>
          </g>
        </g>
      </g>
      <g class="Frame 56">
        <path fill="#fff" d="M330.849 39.233h2.769v-5.352h3.534c2.935 0 4.898-1.778 4.898-4.444 0-2.624-1.963-4.381-4.898-4.381h-6.303v14.177zm2.769-7.832v-3.865h3.534c1.281 0 2.129.765 2.129 1.901 0 1.178-.848 1.964-2.129 1.964h-3.534zm13.772 8.122c2.522 0 4.671-1.53 5.353-3.803h-2.521c-.476 1.033-1.612 1.736-2.832 1.736-1.612 0-2.852-1.095-3.079-2.707h8.473l.207-.207v-.475c0-3.266-2.253-5.456-5.601-5.456s-5.6 2.19-5.6 5.456c0 3.265 2.252 5.456 5.6 5.456zm-2.914-6.841a3.117 3.117 0 012.914-2.005c1.302 0 2.46.806 2.914 2.005h-5.828zm9.895 6.551h2.48v-6.117c0-1.385 1.095-2.315 2.748-2.315h.848V28.9a3.047 3.047 0 00-1.096-.207c-.95 0-1.963.579-2.5 1.426V28.9h-2.48v10.333zm13.416-10.622c-1.261 0-2.646.578-3.431 1.426V28.9h-2.48v14.177h2.48v-4.98c.785.847 2.17 1.426 3.431 1.426 3.265 0 5.456-2.191 5.456-5.456 0-3.266-2.191-5.456-5.456-5.456zm-.248 2.19c1.922 0 3.224 1.302 3.224 3.266 0 1.963-1.302 3.265-3.224 3.265-1.902 0-3.183-1.302-3.183-3.265 0-1.964 1.281-3.266 3.183-3.266zm12.277 8.722c2.521 0 4.671-1.53 5.353-3.803h-2.522c-.475 1.033-1.612 1.736-2.831 1.736-1.612 0-2.852-1.095-3.079-2.707h8.473l.207-.207v-.475c0-3.266-2.253-5.456-5.601-5.456s-5.601 2.19-5.601 5.456c0 3.265 2.253 5.456 5.601 5.456zm-2.914-6.841a3.117 3.117 0 012.914-2.005c1.302 0 2.459.806 2.914 2.005h-5.828zm13.779 6.84c.661 0 1.364-.123 1.756-.289v-1.777h-1.798c-.537 0-.909-.351-.909-.868v-5.621h2.604V28.9h-2.604v-3.844h-2.48V28.9h-1.653v2.067h1.653v5.621c0 1.757 1.385 2.935 3.431 2.935zM403.86 28.9h-2.48v6.138c0 1.364-1.012 2.294-2.521 2.294s-2.521-.93-2.521-2.294V28.9h-2.48v6.427c0 2.522 1.901 4.196 4.712 4.196 1.012 0 2.149-.414 2.81-1.054v.764h2.48V28.9zm6.762 10.623c1.219 0 2.562-.558 3.348-1.406v1.116h2.48V28.9h-2.48v1.116c-.786-.847-2.129-1.405-3.348-1.405-3.224 0-5.374 2.19-5.374 5.456 0 3.265 2.15 5.456 5.374 5.456zm.248-2.191c-1.881 0-3.142-1.302-3.142-3.265 0-1.964 1.261-3.266 3.142-3.266 1.86 0 3.1 1.302 3.1 3.266 0 1.963-1.24 3.265-3.1 3.265zm7.383 1.901h2.48V25.056h-2.48v14.177zm9.588 0h2.769v-5.352h3.534c2.935 0 4.898-1.778 4.898-4.444 0-2.624-1.963-4.381-4.898-4.381h-6.303v14.177zm2.769-7.832v-3.865h3.534c1.281 0 2.129.765 2.129 1.901 0 1.178-.848 1.964-2.129 1.964h-3.534zm9.413 7.832h2.48v-6.117c0-1.385 1.095-2.315 2.748-2.315h.848V28.9a3.047 3.047 0 00-1.096-.207c-.95 0-1.963.579-2.5 1.426V28.9h-2.48v10.333zm11.663.29c3.348 0 5.601-2.191 5.601-5.456 0-3.266-2.253-5.456-5.601-5.456s-5.601 2.19-5.601 5.456c0 3.265 2.253 5.456 5.601 5.456zm0-2.191c-1.86 0-3.121-1.302-3.121-3.265 0-1.964 1.261-3.266 3.121-3.266s3.121 1.302 3.121 3.266c0 1.963-1.261 3.265-3.121 3.265zm11.067 2.19c.661 0 1.364-.123 1.756-.289v-1.777h-1.798c-.537 0-.909-.351-.909-.868v-5.621h2.604V28.9h-2.604v-3.844h-2.48V28.9h-1.653v2.067h1.653v5.621c0 1.757 1.385 2.935 3.431 2.935zm7.96 0c3.348 0 5.601-2.19 5.601-5.455 0-3.266-2.253-5.456-5.601-5.456s-5.601 2.19-5.601 5.456c0 3.265 2.253 5.456 5.601 5.456zm0-2.19c-1.86 0-3.121-1.302-3.121-3.265 0-1.964 1.261-3.266 3.121-3.266s3.121 1.302 3.121 3.266c0 1.963-1.261 3.265-3.121 3.265zm12.168 2.19c2.81 0 4.98-1.797 5.414-4.484h-2.376c-.31 1.364-1.53 2.294-3.038 2.294-1.86 0-3.121-1.302-3.121-3.265 0-1.964 1.261-3.266 3.121-3.266 1.488 0 2.686.889 3.017 2.191h2.377c-.455-2.625-2.625-4.381-5.394-4.381-3.348 0-5.601 2.19-5.601 5.456 0 3.265 2.253 5.456 5.601 5.456zm11.985 0c3.348 0 5.601-2.19 5.601-5.455 0-3.266-2.253-5.456-5.601-5.456s-5.6 2.19-5.6 5.456c0 3.265 2.252 5.456 5.6 5.456zm0-2.19c-1.86 0-3.12-1.302-3.12-3.265 0-1.964 1.26-3.266 3.12-3.266s3.121 1.302 3.121 3.266c0 1.963-1.261 3.265-3.121 3.265zm6.779 1.901h2.48V25.056h-2.48v14.177z" class="Perpetual Protocol"/>
      </g>
    </g>
    <g class="areyawinningson">
      <path fill="#000" d="M238.823 519.63c2.655 0 5.58-1.215 7.29-3.06V519h5.4v-22.5h-5.4v2.43c-1.71-1.845-4.635-3.06-7.29-3.06-7.02 0-11.7 4.77-11.7 11.88 0 7.11 4.68 11.88 11.7 11.88zm.54-4.77c-4.095 0-6.84-2.835-6.84-7.11s2.745-7.11 6.84-7.11c4.05 0 6.75 2.835 6.75 7.11s-2.7 7.11-6.75 7.11zm16.301 4.14h5.4v-13.32c0-3.015 2.385-5.04 5.985-5.04h1.845v-4.14c-.63-.27-1.575-.45-2.385-.45-2.07 0-4.275 1.26-5.445 3.105V496.5h-5.4V519zm25.621.63c5.49 0 10.17-3.33 11.655-8.28h-5.49c-1.035 2.25-3.51 3.78-6.165 3.78-3.51 0-6.21-2.385-6.705-5.895h18.45l.45-.45v-1.035c0-7.11-4.905-11.88-12.195-11.88s-12.195 4.77-12.195 11.88c0 7.11 4.905 11.88 12.195 11.88zm-6.345-14.895a6.785 6.785 0 016.345-4.365 6.785 6.785 0 016.345 4.365h-12.69zm24.052 22.635h5.805l12.15-30.87h-5.805l-5.535 14.13-5.58-14.13h-5.76l8.595 21.06-3.87 9.81zm29.567-7.74c2.655 0 5.58-1.215 7.29-3.06V519h5.4v-22.5h-5.4v2.43c-1.71-1.845-4.635-3.06-7.29-3.06-7.02 0-11.7 4.77-11.7 11.88 0 7.11 4.68 11.88 11.7 11.88zm.54-4.77c-4.095 0-6.84-2.835-6.84-7.11s2.745-7.11 6.84-7.11c4.05 0 6.75 2.835 6.75 7.11s-2.7 7.11-6.75 7.11zm21.205 4.14h5.49l3.825-14.535 3.87 14.535h5.49l7.74-22.5h-5.67l-4.725 16.38-4.185-16.38h-5.04l-4.185 16.38-4.725-16.38h-5.67l7.785 22.5zm29.462-25.47h5.4v-5.4h-5.4v5.4zm0 25.47h5.4v-22.5h-5.4V519zm9.536 0h5.4v-13.365c0-2.97 2.205-4.995 5.49-4.995s5.49 2.025 5.49 4.995V519h5.4v-13.995c0-5.49-4.14-9.135-10.26-9.135-2.205 0-4.68.9-6.12 2.295V496.5h-5.4V519zm25.928 0h5.4v-13.365c0-2.97 2.205-4.995 5.49-4.995s5.49 2.025 5.49 4.995V519h5.4v-13.995c0-5.49-4.14-9.135-10.26-9.135-2.205 0-4.68.9-6.12 2.295V496.5h-5.4V519zm25.927-25.47h5.4v-5.4h-5.4v5.4zm0 25.47h5.4v-22.5h-5.4V519zm9.537 0h5.4v-13.365c0-2.97 2.205-4.995 5.49-4.995s5.49 2.025 5.49 4.995V519h5.4v-13.995c0-5.49-4.14-9.135-10.26-9.135-2.205 0-4.68.9-6.12 2.295V496.5h-5.4V519zm35.938 9c7.065 0 11.79-4.59 11.79-11.475V496.5h-5.4v2.205c-1.665-1.71-4.41-2.835-6.885-2.835-6.75 0-11.295 4.635-11.295 11.565S479.387 519 486.137 519c2.475 0 5.22-1.125 6.885-2.835v.36c0 4.005-2.565 6.705-6.39 6.705-2.97 0-5.445-1.71-6.12-4.23h-5.175c.675 5.4 5.22 9 11.295 9zm.045-13.77c-3.87 0-6.435-2.745-6.435-6.795s2.565-6.795 6.435-6.795c3.78 0 6.345 2.745 6.345 6.795s-2.565 6.795-6.345 6.795zm24.533 5.4c6.255 0 10.44-2.97 10.44-7.425 0-3.96-2.565-5.85-9.9-7.38-3.15-.72-4.23-1.305-4.23-2.25 0-1.305 1.485-2.205 3.69-2.205 1.98 0 3.78 1.035 4.455 2.565l4.95-1.215c-1.305-3.51-5.085-5.85-9.405-5.85-5.445 0-9.09 2.79-9.09 6.975 0 3.555 2.205 5.265 8.595 6.705 4.095.81 5.535 1.485 5.535 2.655 0 1.755-2.025 2.925-5.04 2.925s-5.175-1.53-5.355-3.78h-5.085c.18 4.95 4.365 8.28 10.44 8.28zm24.958 0c7.29 0 12.195-4.77 12.195-11.88 0-7.11-4.905-11.88-12.195-11.88s-12.195 4.77-12.195 11.88c0 7.11 4.905 11.88 12.195 11.88zm0-4.77c-4.05 0-6.795-2.835-6.795-7.11s2.745-7.11 6.795-7.11 6.795 2.835 6.795 7.11-2.745 7.11-6.795 7.11zm14.985 4.14h5.4v-13.365c0-2.97 2.205-4.995 5.49-4.995s5.49 2.025 5.49 4.995V519h5.4v-13.995c0-5.49-4.14-9.135-10.26-9.135-2.205 0-4.68.9-6.12 2.295V496.5h-5.4V519z"/>
      <path fill="#fff" d="M246.113 516.57h2v-5.1l-3.467 3.74 1.467 1.36zm0 2.43h-2v2h2v-2zm5.4 0v2h2v-2h-2zm0-22.5h2v-2h-2v2zm-5.4 0v-2h-2v2h2zm0 2.43l-1.467 1.36 3.467 3.74v-5.1h-2zm-7.29 22.7c3.166 0 6.638-1.415 8.757-3.7l-2.934-2.72c-1.302 1.405-3.68 2.42-5.823 2.42v4zm5.29-5.06V519h4v-2.43h-4zm2 4.43h5.4v-4h-5.4v4zm7.4-2v-22.5h-4V519h4zm-2-24.5h-5.4v4h5.4v-4zm-7.4 2v2.43h4v-2.43h-4zm3.467 1.07c-2.119-2.285-5.591-3.7-8.757-3.7v4c2.143 0 4.521 1.015 5.823 2.42l2.934-2.72zm-8.757-3.7c-3.976 0-7.439 1.36-9.909 3.871-2.467 2.508-3.791 6.008-3.791 10.009h4c0-3.109 1.015-5.549 2.643-7.204 1.625-1.651 4.013-2.676 7.057-2.676v-4zm-13.7 13.88c0 4.001 1.324 7.501 3.791 10.009 2.47 2.511 5.933 3.871 9.909 3.871v-4c-3.044 0-5.432-1.025-7.057-2.676-1.628-1.655-2.643-4.095-2.643-7.204h-4zm14.24 5.11c-1.57 0-2.738-.533-3.516-1.34-.784-.813-1.324-2.065-1.324-3.77h-4c0 2.57.832 4.873 2.444 6.546 1.618 1.679 3.871 2.564 6.396 2.564v-4zm-4.84-5.11c0-1.705.54-2.957 1.324-3.77.778-.807 1.946-1.34 3.516-1.34v-4c-2.525 0-4.778.885-6.396 2.564-1.612 1.673-2.444 3.976-2.444 6.546h4zm4.84-5.11c1.54 0 2.681.527 3.444 1.33.771.811 1.306 2.066 1.306 3.78h4c0-2.561-.815-4.861-2.407-6.536-1.6-1.684-3.833-2.574-6.343-2.574v4zm4.75 5.11c0 1.714-.535 2.969-1.306 3.78-.763.803-1.904 1.33-3.444 1.33v4c2.51 0 4.743-.89 6.343-2.574 1.592-1.675 2.407-3.975 2.407-6.536h-4zM255.664 519h-2v2h2v-2zm5.4 0v2h2v-2h-2zm7.83-18.36v2h2v-2h-2zm0-4.14h2v-1.319l-1.212-.519-.788 1.838zm-7.83 2.655h-2v6.888l3.689-5.817-1.689-1.071zm0-2.655h2v-2h-2v2zm-5.4 0v-2h-2v2h2zm0 24.5h5.4v-4h-5.4v4zm7.4-2v-13.32h-4V519h4zm0-13.32c0-.939.353-1.633.933-2.122.61-.515 1.615-.918 3.052-.918v-4c-2.163 0-4.15.61-5.632 1.861-1.513 1.277-2.353 3.103-2.353 5.179h4zm3.985-3.04h1.845v-4h-1.845v4zm3.845-2v-4.14h-4v4.14h4zm-1.212-5.978c-.916-.393-2.136-.612-3.173-.612v4c.583 0 1.254.141 1.597.288l1.576-3.676zm-3.173-.612c-2.802 0-5.623 1.651-7.134 4.034l3.378 2.142c.829-1.307 2.418-2.176 3.756-2.176v-4zm-3.445 5.105V496.5h-4v2.655h4zm-2-4.655h-5.4v4h5.4v-4zm-7.4 2V519h4v-22.5h-4zm39.276 14.85l1.916.575.773-2.575h-2.689v2zm-5.49 0v-2h-1.281l-.536 1.164 1.817.836zm-12.87-2.115v-2h-2.301l.321 2.279 1.98-.279zm18.45 0v2h.829l.586-.586-1.415-1.414zm.45-.45l1.415 1.414.585-.586v-.828h-2zm-18.54-4.05l-1.87-.709-1.027 2.709h2.897v-2zm12.69 0v2h2.898l-1.028-2.709-1.87.709zm-6.345 16.895c6.3 0 11.812-3.841 13.571-9.705l-3.831-1.15c-1.211 4.036-5.059 6.855-9.74 6.855v4zm11.655-12.28h-5.49v4h5.49v-4zm-7.307 1.164c-.684 1.487-2.413 2.616-4.348 2.616v4c3.376 0 6.597-1.931 7.982-4.944l-3.634-1.672zm-4.348 2.616c-2.49 0-4.365-1.628-4.724-4.174l-3.961.558c.631 4.474 4.156 7.616 8.685 7.616v-4zm-6.705-1.895h18.45v-4h-18.45v4zm19.865-.586l.45-.45-2.829-2.828-.45.45 2.829 2.828zm1.035-1.864v-1.035h-4v1.035h4zm0-1.035c0-4.03-1.4-7.538-3.968-10.039-2.564-2.496-6.139-3.841-10.227-3.841v4c3.203 0 5.725 1.04 7.436 2.707 1.707 1.661 2.759 4.093 2.759 7.173h4zm-14.195-13.88c-4.087 0-7.662 1.345-10.226 3.841-2.568 2.501-3.969 6.009-3.969 10.039h4c0-3.08 1.053-5.512 2.759-7.173 1.712-1.667 4.234-2.707 7.436-2.707v-4zm-14.195 13.88c0 4.03 1.401 7.538 3.969 10.039 2.564 2.496 6.139 3.841 10.226 3.841v-4c-3.202 0-5.724-1.04-7.436-2.707-1.706-1.661-2.759-4.093-2.759-7.173h-4zm9.72-2.306a4.787 4.787 0 014.475-3.074v-4a8.786 8.786 0 00-8.215 5.656l3.74 1.418zm4.475-3.074a4.785 4.785 0 014.475 3.074l3.74-1.418a8.784 8.784 0 00-8.215-5.656v4zm6.345.365h-12.69v4h12.69v-4zm11.362 24.635l-1.861-.734-1.078 2.734h2.939v-2zm5.805 0v2h1.362l.499-1.268-1.861-.732zm12.15-30.87l1.861.732 1.075-2.732h-2.936v2zm-5.805 0v-2h-1.365l-.497 1.271 1.862.729zm-5.535 14.13l-1.86.735 1.867 4.729 1.855-4.735-1.862-.729zm-5.58-14.13l1.86-.735-.5-1.265h-1.36v2zm-5.76 0v-2h-2.977l1.125 2.756 1.852-.756zm8.595 21.06l1.86.734.295-.747-.303-.743-1.852.756zm-3.87 11.81h5.805v-4h-5.805v4zm7.666-1.268l12.15-30.87-3.722-1.464-12.15 30.87 3.722 1.464zm10.289-33.602h-5.805v4h5.805v-4zm-7.667 1.271l-5.535 14.13 3.724 1.458 5.535-14.13-3.724-1.458zm-1.813 14.124l-5.58-14.13-3.72 1.47 5.58 14.13 3.72-1.47zm-7.44-15.395h-5.76v4h5.76v-4zm-7.612 2.756l8.595 21.06 3.704-1.512-8.595-21.06-3.704 1.512zm8.586 19.57l-3.87 9.81 3.721 1.468 3.87-9.81-3.721-1.468zm34.848-.256h2v-5.1l-3.467 3.74 1.467 1.36zm0 2.43h-2v2h2v-2zm5.4 0v2h2v-2h-2zm0-22.5h2v-2h-2v2zm-5.4 0v-2h-2v2h2zm0 2.43l-1.467 1.36 3.467 3.74v-5.1h-2zm-7.29 22.7c3.166 0 6.639-1.415 8.757-3.7l-2.934-2.72c-1.302 1.405-3.679 2.42-5.823 2.42v4zm5.29-5.06V519h4v-2.43h-4zm2 4.43h5.4v-4h-5.4v4zm7.4-2v-22.5h-4V519h4zm-2-24.5h-5.4v4h5.4v-4zm-7.4 2v2.43h4v-2.43h-4zm3.467 1.07c-2.118-2.285-5.591-3.7-8.757-3.7v4c2.144 0 4.521 1.015 5.823 2.42l2.934-2.72zm-8.757-3.7c-3.976 0-7.438 1.36-9.908 3.871-2.467 2.508-3.792 6.008-3.792 10.009h4c0-3.109 1.015-5.549 2.643-7.204 1.625-1.651 4.013-2.676 7.057-2.676v-4zm-13.7 13.88c0 4.001 1.325 7.501 3.792 10.009 2.47 2.511 5.932 3.871 9.908 3.871v-4c-3.044 0-5.432-1.025-7.057-2.676-1.628-1.655-2.643-4.095-2.643-7.204h-4zm14.24 5.11c-1.57 0-2.738-.533-3.516-1.34-.784-.813-1.324-2.065-1.324-3.77h-4c0 2.57.832 4.873 2.444 6.546 1.619 1.679 3.871 2.564 6.396 2.564v-4zm-4.84-5.11c0-1.705.54-2.957 1.324-3.77.778-.807 1.946-1.34 3.516-1.34v-4c-2.525 0-4.777.885-6.396 2.564-1.612 1.673-2.444 3.976-2.444 6.546h4zm4.84-5.11c1.54 0 2.682.527 3.444 1.33.771.811 1.306 2.066 1.306 3.78h4c0-2.561-.815-4.861-2.406-6.536-1.601-1.684-3.834-2.574-6.344-2.574v4zm4.75 5.11c0 1.714-.535 2.969-1.306 3.78-.762.803-1.904 1.33-3.444 1.33v4c2.51 0 4.743-.89 6.344-2.574 1.591-1.675 2.406-3.975 2.406-6.536h-4zM350.304 519l-1.89.654.466 1.346h1.424v-2zm5.49 0v2h1.542l.392-1.491-1.934-.509zm3.825-14.535l1.933-.515-1.944-7.301-1.923 7.307 1.934.509zm3.87 14.535l-1.933.515.396 1.485h1.537v-2zm5.49 0v2h1.427l.464-1.349-1.891-.651zm7.74-22.5l1.891.651.912-2.651h-2.803v2zm-5.67 0v-2h-1.505l-.417 1.446 1.922.554zm-4.725 16.38l-1.938.495 1.821 7.127 2.038-7.068-1.921-.554zm-4.185-16.38l1.938-.495-.385-1.505h-1.553v2zm-5.04 0v-2h-1.553l-.385 1.505 1.938.495zm-4.185 16.38l-1.922.554 2.039 7.068 1.821-7.127-1.938-.495zm-4.725-16.38l1.921-.554-.417-1.446h-1.504v2zm-5.67 0v-2h-2.808l.918 2.654 1.89-.654zm7.785 24.5h5.49v-4h-5.49v4zm7.424-1.491l3.825-14.535-3.868-1.018-3.825 14.535 3.868 1.018zm-.042-14.529l3.87 14.535 3.866-1.03-3.87-14.535-3.866 1.03zm5.803 16.02h5.49v-4h-5.49v4zm7.381-1.349l7.74-22.5-3.782-1.302-7.74 22.5 3.782 1.302zm5.849-25.151h-5.67v4h5.67v-4zm-7.592 1.446l-4.725 16.38 3.843 1.108 4.725-16.38-3.843-1.108zm-.865 16.439l-4.185-16.38-3.876.99 4.185 16.38 3.876-.99zm-6.123-17.885h-5.04v4h5.04v-4zm-6.978 1.505l-4.185 16.38 3.876.99 4.185-16.38-3.876-.99zm-.326 16.321l-4.725-16.38-3.843 1.108 4.725 16.38 3.843-1.108zm-6.646-17.826h-5.67v4h5.67v-4zm-7.56 2.654l7.785 22.5 3.78-1.308-7.785-22.5-3.78 1.308zm39.137-3.624h-2v2h2v-2zm5.4 0v2h2v-2h-2zm0-5.4h2v-2h-2v2zm-5.4 0v-2h-2v2h2zm0 30.87h-2v2h2v-2zm5.4 0v2h2v-2h-2zm0-22.5h2v-2h-2v2zm-5.4 0v-2h-2v2h2zm0-.97h5.4v-4h-5.4v4zm7.4-2v-5.4h-4v5.4h4zm-2-7.4h-5.4v4h5.4v-4zm-7.4 2v5.4h4v-5.4h-4zm2 32.87h5.4v-4h-5.4v4zm7.4-2v-22.5h-4V519h4zm-2-24.5h-5.4v4h5.4v-4zm-7.4 2V519h4v-22.5h-4zm11.536 22.5h-2v2h2v-2zm5.4 0v2h2v-2h-2zm10.98 0h-2v2h2v-2zm5.4 0v2h2v-2h-2zm-16.38-20.835h-2v4.722l3.392-3.286-1.392-1.436zm0-1.665h2v-2h-2v2zm-5.4 0v-2h-2v2h2zm0 24.5h5.4v-4h-5.4v4zm7.4-2v-13.365h-4V519h4zm0-13.365c0-.964.344-1.662.861-2.134.532-.485 1.396-.861 2.629-.861v-4c-2.052 0-3.933.637-5.325 1.906-1.407 1.284-2.165 3.083-2.165 5.089h4zm3.49-2.995c1.233 0 2.097.376 2.629.861.517.472.861 1.17.861 2.134h4c0-2.006-.758-3.805-2.165-5.089-1.392-1.269-3.273-1.906-5.325-1.906v4zm3.49 2.995V519h4v-13.365h-4zm2 15.365h5.4v-4h-5.4v4zm7.4-2v-13.995h-4V519h4zm0-13.995c0-3.279-1.252-6.121-3.507-8.122-2.234-1.982-5.302-3.013-8.753-3.013v4c2.669 0 4.731.792 6.097 2.005 1.345 1.193 2.163 2.919 2.163 5.13h4zm-12.26-11.135c-2.638 0-5.641 1.046-7.512 2.859l2.784 2.872c1.009-.977 2.956-1.731 4.728-1.731v-4zm-4.12 4.295V496.5h-4v1.665h4zm-2-3.665h-5.4v4h5.4v-4zm-7.4 2V519h4v-22.5h-4zM415.23 519h-2v2h2v-2zm5.4 0v2h2v-2h-2zm10.98 0h-2v2h2v-2zm5.4 0v2h2v-2h-2zm-16.38-20.835h-2v4.722l3.391-3.286-1.391-1.436zm0-1.665h2v-2h-2v2zm-5.4 0v-2h-2v2h2zm0 24.5h5.4v-4h-5.4v4zm7.4-2v-13.365h-4V519h4zm0-13.365c0-.964.344-1.662.861-2.134.532-.485 1.395-.861 2.629-.861v-4c-2.052 0-3.934.637-5.325 1.906-1.407 1.284-2.165 3.083-2.165 5.089h4zm3.49-2.995c1.233 0 2.096.376 2.629.861.517.472.861 1.17.861 2.134h4c0-2.006-.759-3.805-2.165-5.089-1.392-1.269-3.274-1.906-5.325-1.906v4zm3.49 2.995V519h4v-13.365h-4zm2 15.365h5.4v-4h-5.4v4zm7.4-2v-13.995h-4V519h4zm0-13.995c0-3.279-1.253-6.121-3.508-8.122-2.233-1.982-5.302-3.013-8.752-3.013v4c2.669 0 4.731.792 6.097 2.005 1.345 1.193 2.163 2.919 2.163 5.13h4zm-12.26-11.135c-2.639 0-5.641 1.046-7.512 2.859l2.783 2.872c1.01-.977 2.957-1.731 4.729-1.731v-4zm-4.12 4.295V496.5h-4v1.665h4zm-2-3.665h-5.4v4h5.4v-4zm-7.4 2V519h4v-22.5h-4zm27.927-2.97h-2v2h2v-2zm5.4 0v2h2v-2h-2zm0-5.4h2v-2h-2v2zm-5.4 0v-2h-2v2h2zm0 30.87h-2v2h2v-2zm5.4 0v2h2v-2h-2zm0-22.5h2v-2h-2v2zm-5.4 0v-2h-2v2h2zm0-.97h5.4v-4h-5.4v4zm7.4-2v-5.4h-4v5.4h4zm-2-7.4h-5.4v4h5.4v-4zm-7.4 2v5.4h4v-5.4h-4zm2 32.87h5.4v-4h-5.4v4zm7.4-2v-22.5h-4V519h4zm-2-24.5h-5.4v4h5.4v-4zm-7.4 2V519h4v-22.5h-4zm11.537 22.5h-2v2h2v-2zm5.4 0v2h2v-2h-2zm10.98 0h-2v2h2v-2zm5.4 0v2h2v-2h-2zm-16.38-20.835h-2v4.722l3.391-3.286-1.391-1.436zm0-1.665h2v-2h-2v2zm-5.4 0v-2h-2v2h2zm0 24.5h5.4v-4h-5.4v4zm7.4-2v-13.365h-4V519h4zm0-13.365c0-.964.344-1.662.861-2.134.532-.485 1.395-.861 2.629-.861v-4c-2.052 0-3.934.637-5.325 1.906-1.407 1.284-2.165 3.083-2.165 5.089h4zm3.49-2.995c1.233 0 2.096.376 2.629.861.516.472.861 1.17.861 2.134h4c0-2.006-.759-3.805-2.166-5.089-1.391-1.269-3.273-1.906-5.324-1.906v4zm3.49 2.995V519h4v-13.365h-4zm2 15.365h5.4v-4h-5.4v4zm7.4-2v-13.995h-4V519h4zm0-13.995c0-3.279-1.253-6.121-3.508-8.122-2.233-1.982-5.302-3.013-8.752-3.013v4c2.669 0 4.73.792 6.097 2.005 1.345 1.193 2.163 2.919 2.163 5.13h4zm-12.26-11.135c-2.639 0-5.641 1.046-7.512 2.859l2.783 2.872c1.01-.977 2.957-1.731 4.729-1.731v-4zm-4.12 4.295V496.5h-4v1.665h4zm-2-3.665h-5.4v4h5.4v-4zm-7.4 2V519h4v-22.5h-4zm49.728 0h2v-2h-2v2zm-5.4 0v-2h-2v2h2zm0 2.205l-1.433 1.395 3.433 3.526v-4.921h-2zm0 17.46h2v-4.921l-3.433 3.526 1.433 1.395zM480.512 519l1.932-.517-.397-1.483h-1.535v2zm-5.175 0v-2h-2.265l.281 2.248 1.984-.248zm11.295 11c3.972 0 7.447-1.297 9.939-3.722 2.498-2.43 3.851-5.838 3.851-9.753h-4c0 2.97-1.009 5.299-2.64 6.886-1.636 1.591-4.056 2.589-7.15 2.589v4zm13.79-13.475V496.5h-4v20.025h4zm-2-22.025h-5.4v4h5.4v-4zm-7.4 2v2.205h4V496.5h-4zm3.433.81c-2.06-2.116-5.33-3.44-8.318-3.44v4c1.963 0 4.182.926 5.452 2.23l2.866-2.79zm-8.318-3.44c-3.846 0-7.208 1.331-9.608 3.786-2.397 2.451-3.687 5.87-3.687 9.779h4c0-3.021.983-5.384 2.547-6.983 1.559-1.595 3.845-2.582 6.748-2.582v-4zm-13.295 13.565c0 3.909 1.29 7.328 3.687 9.779 2.4 2.455 5.762 3.786 9.608 3.786v-4c-2.903 0-5.189-.987-6.748-2.582-1.564-1.599-2.547-3.962-2.547-6.983h-4zM486.137 521c2.988 0 6.258-1.324 8.318-3.44l-2.866-2.79c-1.27 1.304-3.489 2.23-5.452 2.23v4zm4.885-4.835v.36h4v-.36h-4zm0 .36c0 1.572-.497 2.728-1.209 3.475-.703.739-1.757 1.23-3.181 1.23v4c2.402 0 4.543-.859 6.078-2.471 1.527-1.604 2.312-3.801 2.312-6.234h-4zm-4.39 4.705c-2.237 0-3.789-1.258-4.188-2.747l-3.863 1.034c.951 3.551 4.349 5.713 8.051 5.713v-4zm-6.12-4.23h-5.175v4h5.175v-4zm-7.159 2.248c.822 6.577 6.383 10.752 13.279 10.752v-4c-5.253 0-8.782-3.025-9.31-7.248l-3.969.496zm13.324-7.018c-1.441 0-2.504-.499-3.214-1.251-.719-.763-1.221-1.943-1.221-3.544h-4c0 2.449.781 4.667 2.312 6.289 1.54 1.633 3.695 2.506 6.123 2.506v-4zm-4.435-4.795c0-1.601.502-2.781 1.221-3.544.71-.752 1.773-1.251 3.214-1.251v-4c-2.428 0-4.583.873-6.123 2.506-1.531 1.622-2.312 3.84-2.312 6.289h4zm4.435-4.795c1.384 0 2.425.49 3.129 1.244.715.765 1.216 1.949 1.216 3.551h4c0-2.448-.78-4.662-2.293-6.281-1.523-1.632-3.655-2.514-6.052-2.514v4zm4.345 4.795c0 1.602-.501 2.786-1.216 3.551-.704.754-1.745 1.244-3.129 1.244v4c2.397 0 4.529-.882 6.052-2.514 1.513-1.619 2.293-3.833 2.293-6.281h-4zm20.728-2.61l-.446 1.95.019.004.019.004.408-1.958zm3.915-1.89l-1.83.807.678 1.535 1.629-.4-.477-1.942zm4.95-1.215l.477 1.942 2.18-.535-.782-2.104-1.875.697zm-9.9 7.83l-.44 1.951.026.006.026.005.388-1.962zm-4.86 1.8l1.994-.159-.147-1.841h-1.847v2zm-5.085 0v-2h-2.074l.075 2.073 1.999-.073zm10.44 10.28c3.418 0 6.469-.808 8.724-2.412 2.307-1.639 3.716-4.079 3.716-7.013h-4c0 1.521-.683 2.793-2.033 3.753-1.4.995-3.57 1.672-6.407 1.672v4zm12.44-9.425c0-1.206-.196-2.371-.704-3.457-.514-1.096-1.294-2-2.302-2.749-1.934-1.438-4.785-2.36-8.485-3.132l-.817 3.916c3.634.758 5.733 1.546 6.915 2.426.551.409.87.816 1.067 1.236.201.43.326.986.326 1.76h4zm-11.454-9.33c-1.57-.359-2.394-.638-2.8-.855-.186-.099-.149-.117-.063-.002.12.157.187.37.187.557h-4c0 .66.203 1.3.623 1.855.387.513.891.864 1.369 1.119.921.492 2.212.865 3.792 1.226l.892-3.9zm-2.676-.3a.378.378 0 01-.055.193c-.022.034-.012-.002.102-.07.246-.147.781-.328 1.643-.328v-4c-1.343 0-2.653.269-3.701.898-1.083.65-1.989 1.778-1.989 3.307h4zm1.69-.205c1.372 0 2.338.722 2.625 1.372l3.66-1.614c-1.063-2.41-3.696-3.758-6.285-3.758v4zm4.932 2.507l4.95-1.215-.954-3.884-4.95 1.215.954 3.884zm6.348-3.854c-1.653-4.444-6.298-7.153-11.28-7.153v4c3.658 0 6.573 1.971 7.531 4.547l3.749-1.394zm-11.28-7.153c-3.043 0-5.779.778-7.804 2.331-2.069 1.586-3.286 3.909-3.286 6.644h4c0-1.45.605-2.615 1.72-3.47 1.159-.888 2.968-1.505 5.37-1.505v-4zm-11.09 8.975c0 2.295.762 4.235 2.672 5.723 1.724 1.343 4.252 2.205 7.483 2.933l.88-3.902c-3.159-.712-4.928-1.425-5.904-2.186-.791-.616-1.131-1.308-1.131-2.568h-4zm10.207 8.667c2.049.405 3.208.739 3.83 1.035.297.142.321.208.263.139a.811.811 0 01-.17-.481h4a3.2 3.2 0 00-.748-2.07c-.455-.55-1.048-.923-1.622-1.197-1.123-.536-2.731-.945-4.777-1.35l-.776 3.924zm3.923.693a.134.134 0 01-.029.09c-.034.052-.131.166-.363.3-.484.281-1.365.535-2.648.535v4c1.732 0 3.372-.331 4.654-1.074 1.321-.766 2.386-2.075 2.386-3.851h-4zm-3.04.925c-2.477 0-3.299-1.166-3.361-1.939l-3.987.318c.298 3.727 3.796 5.621 7.348 5.621v-4zm-5.355-3.78h-5.085v4h5.085v-4zm-7.084 2.073c.112 3.066 1.484 5.679 3.765 7.49 2.252 1.787 5.284 2.717 8.674 2.717v-4c-2.684 0-4.783-.735-6.187-1.85-1.375-1.092-2.186-2.619-2.254-4.503l-3.998.146zm37.397 10.207c4.088 0 7.663-1.345 10.227-3.841 2.568-2.501 3.968-6.009 3.968-10.039h-4c0 3.08-1.052 5.512-2.759 7.173-1.711 1.667-4.233 2.707-7.436 2.707v4zm14.195-13.88c0-4.03-1.4-7.538-3.968-10.039-2.564-2.496-6.139-3.841-10.227-3.841v4c3.203 0 5.725 1.04 7.436 2.707 1.707 1.661 2.759 4.093 2.759 7.173h4zm-14.195-13.88c-4.087 0-7.663 1.345-10.226 3.841-2.569 2.501-3.969 6.009-3.969 10.039h4c0-3.08 1.053-5.512 2.759-7.173 1.712-1.667 4.234-2.707 7.436-2.707v-4zm-14.195 13.88c0 4.03 1.4 7.538 3.969 10.039 2.563 2.496 6.139 3.841 10.226 3.841v-4c-3.202 0-5.724-1.04-7.436-2.707-1.706-1.661-2.759-4.093-2.759-7.173h-4zm14.195 5.11c-1.541 0-2.698-.529-3.473-1.336-.781-.815-1.322-2.069-1.322-3.774h-4c0 2.57.832 4.871 2.436 6.543 1.61 1.678 3.851 2.567 6.359 2.567v-4zm-4.795-5.11c0-1.705.541-2.959 1.322-3.774.775-.807 1.932-1.336 3.473-1.336v-4c-2.508 0-4.749.889-6.359 2.567-1.604 1.672-2.436 3.973-2.436 6.543h4zm4.795-5.11c1.542 0 2.698.529 3.473 1.336.782.815 1.322 2.069 1.322 3.774h4c0-2.57-.832-4.871-2.435-6.543-1.61-1.678-3.851-2.567-6.36-2.567v4zm4.795 5.11c0 1.705-.54 2.959-1.322 3.774-.775.807-1.931 1.336-3.473 1.336v4c2.509 0 4.75-.889 6.36-2.567 1.603-1.672 2.435-3.973 2.435-6.543h-4zm10.19 11.25h-2v2h2v-2zm5.4 0v2h2v-2h-2zm10.98 0h-2v2h2v-2zm5.4 0v2h2v-2h-2zm-16.38-20.835h-2v4.722l3.391-3.286-1.391-1.436zm0-1.665h2v-2h-2v2zm-5.4 0v-2h-2v2h2zm0 24.5h5.4v-4h-5.4v4zm7.4-2v-13.365h-4V519h4zm0-13.365c0-.964.344-1.662.861-2.134.532-.485 1.395-.861 2.629-.861v-4c-2.052 0-3.934.637-5.325 1.906-1.407 1.284-2.165 3.083-2.165 5.089h4zm3.49-2.995c1.233 0 2.096.376 2.629.861.516.472.861 1.17.861 2.134h4c0-2.006-.759-3.805-2.166-5.089-1.391-1.269-3.273-1.906-5.324-1.906v4zm3.49 2.995V519h4v-13.365h-4zm2 15.365h5.4v-4h-5.4v4zm7.4-2v-13.995h-4V519h4zm0-13.995c0-3.279-1.253-6.121-3.508-8.122-2.233-1.982-5.302-3.013-8.752-3.013v4c2.669 0 4.73.792 6.097 2.005 1.345 1.193 2.163 2.919 2.163 5.13h4zm-12.26-11.135c-2.639 0-5.641 1.046-7.512 2.859l2.783 2.872c1.01-.977 2.957-1.731 4.729-1.731v-4zm-4.12 4.295V496.5h-4v1.665h4zm-2-3.665h-5.4v4h5.4v-4zm-7.4 2V519h4v-22.5h-4z"/>
    </g>
    <path fill="#5B5B5B" d="M261.839 309h4.196v-17.721h6.199v-3.758H255.64v3.758h6.199V309zm8.949 0h3.757v-9.268c0-2.098 1.66-3.506 4.165-3.506h1.283v-2.881c-.438-.188-1.095-.313-1.659-.313-1.44 0-2.974.877-3.789 2.16v-1.847h-3.757V309zm17.483.438c1.847 0 3.882-.845 5.072-2.129V309h3.757v-15.655h-3.757v1.691c-1.19-1.284-3.225-2.129-5.072-2.129-4.885 0-8.141 3.319-8.141 8.266 0 4.946 3.256 8.265 8.141 8.265zm.375-3.319c-2.849 0-4.759-1.972-4.759-4.946 0-2.975 1.91-4.947 4.759-4.947 2.818 0 4.697 1.972 4.697 4.947 0 2.974-1.879 4.946-4.697 4.946zm18.676 3.319c1.91 0 4.008-.876 5.198-2.16V309h3.757v-21.479h-3.757v7.546c-1.19-1.284-3.288-2.16-5.198-2.16-4.947 0-8.265 3.319-8.265 8.266 0 4.946 3.318 8.265 8.265 8.265zm.376-3.319c-2.912 0-4.884-1.972-4.884-4.946 0-2.975 1.972-4.947 4.884-4.947 2.881 0 4.822 1.972 4.822 4.947 0 2.974-1.941 4.946-4.822 4.946zm19.321 3.319c3.819 0 7.076-2.317 8.109-5.761h-3.82c-.72 1.566-2.442 2.63-4.289 2.63-2.443 0-4.321-1.659-4.666-4.101h12.838l.313-.313v-.72c0-4.947-3.413-8.266-8.485-8.266-5.073 0-8.485 3.319-8.485 8.266 0 4.946 3.412 8.265 8.485 8.265zm-4.415-10.363a4.721 4.721 0 014.415-3.037 4.72 4.72 0 014.414 3.037h-8.829zm29.876 10.363c1.848 0 3.883-.845 5.073-2.129V309h3.757v-15.655h-3.757v1.691c-1.19-1.284-3.225-2.129-5.073-2.129-4.884 0-8.14 3.319-8.14 8.266 0 4.946 3.256 8.265 8.14 8.265zm.376-3.319c-2.849 0-4.759-1.972-4.759-4.946 0-2.975 1.91-4.947 4.759-4.947 2.818 0 4.697 1.972 4.697 4.947 0 2.974-1.879 4.946-4.697 4.946zm17.87 3.319c1.002 0 2.066-.188 2.661-.438v-2.693h-2.724c-.814 0-1.378-.532-1.378-1.315v-8.516h3.945v-3.131h-3.945v-5.824h-3.757v5.824h-2.505v3.131h2.505v8.516c0 2.662 2.098 4.446 5.198 4.446zm19.7 0c1.847 0 3.882-.845 5.072-2.129V309h3.757v-15.655h-3.757v1.691c-1.19-1.284-3.225-2.129-5.072-2.129-4.885 0-8.141 3.319-8.141 8.266 0 4.946 3.256 8.265 8.141 8.265zm.375-3.319c-2.849 0-4.759-1.972-4.759-4.946 0-2.975 1.91-4.947 4.759-4.947 2.818 0 4.697 1.972 4.697 4.947 0 2.974-1.879 4.946-4.697 4.946zM410.347 309h8.359c6.544 0 10.928-4.321 10.928-10.739 0-6.419-4.384-10.74-10.928-10.74h-8.359V309zm4.195-3.757v-13.964h4.164c4.039 0 6.732 2.817 6.732 6.982 0 4.164-2.693 6.982-6.732 6.982h-4.164zm17.658-13.964h3.757v-3.758H432.2v3.758zm0 17.721h3.757v-15.655H432.2V309zm13.273.438c4.352 0 7.264-2.066 7.264-5.166 0-2.755-1.785-4.07-6.889-5.135-2.191-.501-2.943-.908-2.943-1.565 0-.908 1.033-1.534 2.568-1.534 1.377 0 2.63.72 3.099 1.784l3.444-.845c-.908-2.442-3.538-4.07-6.543-4.07-3.789 0-6.325 1.941-6.325 4.853 0 2.473 1.534 3.663 5.98 4.665 2.849.563 3.851 1.033 3.851 1.847 0 1.221-1.409 2.035-3.506 2.035-2.098 0-3.601-1.064-3.726-2.63h-3.538c.125 3.444 3.037 5.761 7.264 5.761zm17.365 0c4.258 0 7.546-2.724 8.203-6.794h-3.6c-.47 2.067-2.317 3.475-4.603 3.475-2.818 0-4.728-1.972-4.728-4.946 0-2.975 1.91-4.947 4.728-4.947 2.254 0 4.07 1.346 4.571 3.318h3.601c-.689-3.976-3.977-6.637-8.172-6.637-5.072 0-8.485 3.319-8.485 8.266 0 4.946 3.413 8.265 8.485 8.265zm18.315 0c5.072 0 8.485-3.319 8.485-8.265 0-4.947-3.413-8.266-8.485-8.266-5.072 0-8.485 3.319-8.485 8.266 0 4.946 3.413 8.265 8.485 8.265zm0-3.319c-2.818 0-4.728-1.972-4.728-4.946 0-2.975 1.91-4.947 4.728-4.947 2.818 0 4.728 1.972 4.728 4.947 0 2.974-1.91 4.946-4.728 4.946zm25.886-12.774h-3.758v9.299c0 2.067-1.534 3.475-3.819 3.475-2.286 0-3.82-1.408-3.82-3.475v-9.299h-3.757v9.737c0 3.82 2.88 6.356 7.138 6.356 1.534 0 3.256-.626 4.258-1.596V309h3.758v-15.655zM509.925 309h3.757v-9.299c0-2.067 1.534-3.475 3.82-3.475 2.285 0 3.819 1.408 3.819 3.475V309h3.758v-9.737c0-3.82-2.881-6.356-7.139-6.356-1.534 0-3.256.626-4.258 1.596v-1.158h-3.757V309zm24.567.438c1.002 0 2.066-.188 2.661-.438v-2.693h-2.724c-.814 0-1.378-.532-1.378-1.315v-8.516h3.945v-3.131h-3.945v-5.824h-3.757v5.824h-2.505v3.131h2.505v8.516c0 2.662 2.098 4.446 5.198 4.446zM247.232 346h3.819l2.662-10.113L256.406 346h3.819l5.386-15.655h-3.945l-3.288 11.397-2.912-11.397h-3.507l-2.911 11.397-3.288-11.397h-3.945L247.232 346zm20.499-17.721h3.757v-3.758h-3.757v3.758zm0 17.721h3.757v-15.655h-3.757V346zm13.773.438c1.002 0 2.067-.188 2.662-.438v-2.693h-2.724c-.814 0-1.378-.532-1.378-1.315v-8.516h3.945v-3.131h-3.945v-5.824h-3.757v5.824h-2.505v3.131h2.505v8.516c0 2.662 2.098 4.446 5.197 4.446zm4.97-.438h3.757v-9.299c0-2.067 1.534-3.475 3.82-3.475 2.286 0 3.82 1.408 3.82 3.475V346h3.757v-9.737c0-3.82-2.881-6.356-7.139-6.356-1.534 0-3.256.626-4.258 1.596v-6.982h-3.757V346zm25.867 0h3.758v-10.551c0-1.315 1.158-2.223 2.849-2.223 1.69 0 2.849.908 2.849 2.223V346h3.757v-10.551c0-1.315 1.159-2.223 2.849-2.223 1.691 0 2.85.908 2.85 2.223V346h3.757v-10.927c0-3.1-2.505-5.166-6.231-5.166-1.722 0-3.601.751-4.696 1.878-1.065-1.127-2.724-1.878-4.165-1.878-1.409 0-2.943.751-3.819 1.847v-1.409h-3.758V346zm27.15 5.824h4.039l8.454-21.479h-4.039l-3.851 9.831-3.883-9.831h-4.007l5.98 14.653-2.693 6.826zM360.446 346h4.196v-9.143h3.976l5.667 9.143h4.634l-5.855-9.456c2.599-.657 4.352-3.005 4.352-5.855 0-3.694-2.817-6.168-6.982-6.168h-9.988V346zm4.196-12.9v-4.821h5.792c1.722 0 2.881.97 2.881 2.41 0 1.441-1.159 2.411-2.881 2.411h-5.792zm23.131 13.338c3.82 0 7.077-2.317 8.11-5.761h-3.82c-.72 1.566-2.442 2.63-4.29 2.63-2.442 0-4.32-1.659-4.665-4.101h12.837l.313-.313v-.72c0-4.947-3.412-8.266-8.485-8.266-5.072 0-8.485 3.319-8.485 8.266 0 4.946 3.413 8.265 8.485 8.265zm-4.414-10.363a4.72 4.72 0 014.414-3.037 4.721 4.721 0 014.415 3.037h-8.829zM399.835 346h3.757v-12.524h3.287v-3.131h-3.287v-1.753c0-.814.563-1.378 1.377-1.378h1.91v-2.693c-.407-.25-1.283-.438-2.223-.438-2.88 0-4.821 1.816-4.821 4.54v1.722h-2.505v3.131h2.505V346zm15.671.438c3.82 0 7.076-2.317 8.109-5.761h-3.819c-.721 1.566-2.443 2.63-4.29 2.63-2.442 0-4.321-1.659-4.665-4.101h12.837l.313-.313v-.72c0-4.947-3.413-8.266-8.485-8.266-5.072 0-8.485 3.319-8.485 8.266 0 4.946 3.413 8.265 8.485 8.265zm-4.415-10.363a4.722 4.722 0 014.415-3.037 4.721 4.721 0 014.415 3.037h-8.83zM426.238 346h3.757v-9.268c0-2.098 1.659-3.506 4.164-3.506h1.284v-2.881c-.439-.188-1.096-.313-1.66-.313-1.44 0-2.974.877-3.788 2.16v-1.847h-3.757V346zm11.221 0h3.757v-9.268c0-2.098 1.66-3.506 4.164-3.506h1.284v-2.881c-.438-.188-1.096-.313-1.659-.313-1.441 0-2.975.877-3.789 2.16v-1.847h-3.757V346zm17.482.438c1.848 0 3.883-.845 5.072-2.129V346h3.758v-15.655h-3.758v1.691c-1.189-1.284-3.224-2.129-5.072-2.129-4.884 0-8.14 3.319-8.14 8.266 0 4.946 3.256 8.265 8.14 8.265zm.376-3.319c-2.849 0-4.759-1.972-4.759-4.946 0-2.975 1.91-4.947 4.759-4.947 2.818 0 4.696 1.972 4.696 4.947 0 2.974-1.878 4.946-4.696 4.946zM466.659 346h3.757v-21.479h-3.757V346zm24.403.438c5.135 0 9.299-3.569 10.332-8.86h-4.039c-.845 3.068-3.381 5.103-6.293 5.103-4.165 0-6.982-2.974-6.982-7.42s2.817-7.421 6.982-7.421c2.661 0 5.103 1.847 6.105 4.603h4.133c-1.252-5.01-5.354-8.36-10.238-8.36-6.701 0-11.178 4.477-11.178 11.178 0 6.7 4.477 11.177 11.178 11.177zm20.453 0c5.072 0 8.485-3.319 8.485-8.265 0-4.947-3.413-8.266-8.485-8.266-5.072 0-8.485 3.319-8.485 8.266 0 4.946 3.413 8.265 8.485 8.265zm0-3.319c-2.818 0-4.728-1.972-4.728-4.946 0-2.975 1.91-4.947 4.728-4.947 2.818 0 4.728 1.972 4.728 4.947 0 2.974-1.91 4.946-4.728 4.946zm18.371 3.319c1.91 0 4.008-.876 5.198-2.16V346h3.757v-21.479h-3.757v7.546c-1.19-1.284-3.288-2.16-5.198-2.16-4.947 0-8.265 3.319-8.265 8.266 0 4.946 3.318 8.265 8.265 8.265zm.376-3.319c-2.912 0-4.884-1.972-4.884-4.946 0-2.975 1.972-4.947 4.884-4.947 2.881 0 4.822 1.972 4.822 4.947 0 2.974-1.941 4.946-4.822 4.946zm19.321 3.319c3.819 0 7.076-2.317 8.109-5.761h-3.82c-.72 1.566-2.442 2.63-4.289 2.63-2.443 0-4.321-1.659-4.666-4.101h12.837l.314-.313v-.72c0-4.947-3.413-8.266-8.485-8.266-5.073 0-8.485 3.319-8.485 8.266 0 4.946 3.412 8.265 8.485 8.265zm-4.415-10.363a4.721 4.721 0 014.415-3.037 4.72 4.72 0 014.414 3.037h-8.829z" class="Trade at a Discount with my Referral Code"/>
    <path stroke="#3CEAAA" d="M179 255.5h441" class="Line 156"/>
    <g class="Group 1101">
      <path fill="#fff" stroke="#000" d="M36.5 475.5h14v14h-14z" class="Rectangle 640"/>
      <path fill="#fff" stroke="#000" d="M49.5 489.5h14v14h-14z" class="Rectangle 641"/>
    </g>
    <g class="Group 1121">
      <path fill="#fff" stroke="#000" d="M746.5 446.5h14v14h-14z" class="Rectangle 640_2"/>
      <path fill="#fff" stroke="#000" d="M759.5 460.5h14v14h-14z" class="Rectangle 641_2"/>
    </g>
    <g class="Group 1100">
      <path fill="#fff" stroke="#000" d="M32.5 219.5h14v14h-14z" class="Rectangle 642"/>
      <path fill="#fff" stroke="#000" d="M46.5 204.5h14v14h-14z" class="Rectangle 644"/>
      <path fill="#fff" stroke="#000" d="M46.5 233.5h14v14h-14z" class="Rectangle 643"/>
    </g>
    <path fill="#000" stroke="#3CEAAA" stroke-linejoin="round" stroke-width="1.5" d="M48 404.25a.75.75 0 010 1.5c-9.527 0-17.25 7.723-17.25 17.25a.75.75 0 01-1.5 0c0-9.527-7.723-17.25-17.25-17.25a.75.75 0 010-1.5c9.527 0 17.25-7.723 17.25-17.25a.75.75 0 011.5 0c0 9.527 7.723 17.25 17.25 17.25z" class="Subtract"/>
    <path fill="#000" stroke="#3CEAAA" stroke-linejoin="round" stroke-width="1.5" d="M767 223.25a.75.75 0 010 1.5c-9.527 0-17.25 7.723-17.25 17.25a.75.75 0 01-1.5 0c0-9.527-7.723-17.25-17.25-17.25a.75.75 0 010-1.5c9.527 0 17.25-7.723 17.25-17.25a.75.75 0 011.5 0c0 9.527 7.723 17.25 17.25 17.25z" class="Subtract_2"/>
    <path fill="#000" stroke="#3CEAAA" stroke-linejoin="round" stroke-width="1.5" d="M241 45.25a.75.75 0 010 1.5c-7.87 0-14.25 6.38-14.25 14.25a.75.75 0 01-1.5 0c0-7.87-6.38-14.25-14.25-14.25a.75.75 0 010-1.5c7.87 0 14.25-6.38 14.25-14.25a.75.75 0 011.5 0c0 7.87 6.38 14.25 14.25 14.25z" class="Subtract_3"/>
    <g class="Group 1113">
      <path fill="#F47474" fill-rule="evenodd" d="M116.807 652.919c-.471-5.04-4.748-10.417-9.553-12.01l-67.155-22.264a15.543 15.543 0 00-3.47-1.15c-2.119-.699-3.985-.544-5.369.281a7.485 7.485 0 00-1.716.885l-5.446 3.788c-2.537 1.764-3.77 5.028-3.398 9.001l7.715 82.564c.745 7.972 7.6 16.455 15.18 18.785l62.174 19.11c2.658.817 5.161.784 7.196-.094l7.177-3.097a7.45 7.45 0 001.166-.631c2.556-.653 4.107-3.054 3.784-6.51l-8.285-88.658z" class="Union" clip-rule="evenodd"/>
      <path fill="#FC999D" d="M33.178 617.195c-1.762.419-3.292 4.082-3.073 6.424l7.795 83.417c1.061 13.437 6.55 16.535 14.13 18.865l65.886 20.948c2.658.817 5.109-.056 6.285-1.88l.181-.077c-.621 1.494-1.786 2.512-3.311 2.907a7.47 7.47 0 01-1.183.643l-7.151 3.085c-2.034.878-4.537.911-7.196.094l-62.042-19.07c-7.58-2.33-14.435-10.813-15.18-18.785l-7.7-82.394c-.37-3.973.862-7.237 3.398-9.001l5.425-3.772a7.477 7.477 0 011.75-.898c.273-.16 1.678-.399 1.986-.506z" class="Subtract_4"/>
      <g class="Group 1106">
        <path fill="#fff" stroke="#000" stroke-width="1.018" d="M48.186 655.543l63.903 56.318-.771-8.259-63.944-56.753.812 8.694z" class="Vector 538"/>
        <g class="Subtract_5">
          <path fill="#fff" fill-rule="evenodd" d="M56.768 691.147c.763 8.163 7.724 16.768 15.547 19.219 7.823 2.452 13.546-2.177 12.783-10.34-.762-8.163-7.723-16.768-15.546-19.22-7.823-2.451-13.546 2.178-12.784 10.341zm6.667 2.089c.404 4.322 4.09 8.877 8.23 10.175 4.142 1.298 7.172-1.153 6.769-5.474-.404-4.322-4.089-8.877-8.23-10.175-4.142-1.298-7.172 1.153-6.768 5.474z" clip-rule="evenodd"/>
          <path fill="#000" d="M72.267 709.859c-7.555-2.367-14.276-10.677-15.013-18.56l-.971-.304c.788 8.442 7.987 17.342 16.079 19.878l-.095-1.014zm12.346-9.985c.736 7.882-4.791 12.353-12.346 9.985l.095 1.014c8.091 2.536 14.011-2.252 13.222-10.695l-.972-.304zM69.6 681.313c7.555 2.368 14.276 10.678 15.013 18.561l.971.304c-.789-8.443-7.988-17.343-16.08-19.879l.096 1.014zm-12.346 9.986c-.736-7.882 4.79-12.353 12.346-9.986l-.095-1.014c-8.091-2.536-14.011 2.253-13.222 10.696l.971.304zm14.364 11.605c-3.873-1.214-7.319-5.474-7.697-9.516l-.971-.304c.43 4.601 4.353 9.452 8.763 10.834l-.095-1.014zm6.33-5.12c.378 4.042-2.456 6.334-6.33 5.12l.095 1.014c4.41 1.382 7.637-1.227 7.207-5.829l-.972-.305zm-7.697-9.515c3.873 1.214 7.32 5.474 7.697 9.515l.972.305c-.43-4.601-4.354-9.452-8.764-10.834l.095 1.014zm-6.33 5.119c-.377-4.041 2.456-6.333 6.33-5.119l-.095-1.014c-4.41-1.382-7.636 1.227-7.206 5.829l.971.304z"/>
        </g>
        <g class="Subtract_6">
          <path fill="#fff" fill-rule="evenodd" d="M75.689 659.944c.763 8.163 7.723 16.768 15.546 19.22 7.823 2.452 13.547-2.178 12.784-10.341-.763-8.162-7.723-16.767-15.546-19.219-7.823-2.452-13.547 2.178-12.784 10.34zm6.667 2.09c.404 4.321 4.089 8.877 8.23 10.175 4.142 1.298 7.172-1.153 6.768-5.475-.404-4.321-4.089-8.877-8.23-10.175-4.142-1.298-7.172 1.153-6.768 5.475z" clip-rule="evenodd"/>
          <path fill="#000" d="M91.188 678.657c-7.555-2.368-14.277-10.677-15.013-18.56l-.972-.305c.789 8.443 7.988 17.343 16.08 19.879l-.095-1.014zm12.345-9.986c.737 7.883-4.79 12.354-12.345 9.986l.094 1.014c8.092 2.536 14.012-2.253 13.223-10.695l-.972-.305zm-15.013-18.56c7.555 2.368 14.276 10.677 15.013 18.56l.972.305c-.789-8.443-7.988-17.343-16.08-19.879l.095 1.014zm-12.345 9.986c-.737-7.883 4.79-12.354 12.345-9.986l-.095-1.014c-8.091-2.536-14.011 2.252-13.222 10.695l.972.305zm14.364 11.605c-3.874-1.214-7.32-5.475-7.697-9.516l-.972-.305c.43 4.602 4.353 9.453 8.763 10.835l-.094-1.014zm6.33-5.12c.377 4.041-2.457 6.334-6.33 5.12l.094 1.014c4.41 1.382 7.637-1.228 7.207-5.829l-.972-.305zm-7.698-9.516c3.873 1.214 7.32 5.475 7.697 9.516l.972.305c-.43-4.602-4.354-9.453-8.764-10.835l.095 1.014zm-6.33 5.12c-.377-4.041 2.457-6.334 6.33-5.12l-.095-1.014c-4.41-1.382-7.636 1.228-7.206 5.829l.972.305z"/>
        </g>
      </g>
      <path stroke="#FFF0F0" stroke-width="1.018" d="M34.161 617.104c-1.343.125-4.019 1.593-3.97 6.457l8.082 86.495c.564 6.035 4.125 12.598 12.085 15.101l68.612 21.686c4.173 1.139 5.899-2.18 5.804-3.191" class="Vector 541"/>
      <path fill="#000" d="M108.058 640.835l.16-.484-.16.484zm-70.61-23.409l-.16.484.16-.484zm-6.234.925l.163.483.108-.037.082-.079-.353-.367zm-1.89.947l-.29-.418.29.418zm-4.425 3.077l-.29-.418.29.418zm-3.398 9.001l-.507.047.507-.047zm7.715 82.564l.507-.048-.507.048zm15.18 18.785l-.149.486.15-.486zm62.229 19.127l.15-.487-.15.487zm7.118-.061l.197.47-.197-.47zm8.563-3.584l-.196-.47.196.47zm1.757-1.188l-.33-.388-.018.016-.017.017.365.355zm-16.165-105.701c2.289.759 4.482 2.432 6.163 4.546 1.682 2.114 2.819 4.627 3.043 7.028l1.014-.094c-.247-2.639-1.483-5.335-3.26-7.568-1.776-2.233-4.124-4.045-6.64-4.879l-.32.967zm-70.61-23.408l70.61 23.408.32-.967-70.609-23.408-.32.967zm-5.721.808c1.246-1.2 3.252-1.627 5.721-.808l.321-.967c-2.725-.904-5.16-.489-6.749 1.042l.707.733zm-1.953.998a7.013 7.013 0 011.763-.882l-.326-.965a7.987 7.987 0 00-2.018 1.011l.581.836zm-4.424 3.077l4.424-3.077-.58-.836-4.426 3.077.582.836zm-3.182 8.535c-.36-3.851.84-6.907 3.182-8.535l-.582-.836c-2.732 1.9-3.997 5.373-3.614 9.466l1.014-.095zm7.715 82.564l-7.715-82.564-1.014.095 7.715 82.564 1.014-.095zm14.823 18.346c-3.672-1.129-7.2-3.761-9.907-7.11-2.706-3.349-4.555-7.37-4.916-11.236l-1.014.095c.384 4.107 2.335 8.312 5.138 11.781 2.803 3.468 6.492 6.242 10.4 7.443l.3-.973zm62.229 19.127l-62.229-19.127-.299.973 62.229 19.127.299-.973zm6.772-.044c-1.886.79-4.233.824-6.772.044l-.299.973c2.708.833 5.308.825 7.464-.077l-.393-.94zm8.563-3.584l-8.563 3.584.393.94 8.563-3.584-.393-.94zm1.588-1.073c-.438.45-.968.814-1.588 1.073l.393.94a5.792 5.792 0 001.924-1.302l-.729-.711zm1.691-5.113c.218 2.333-.466 4.072-1.656 5.08l.659.777c1.506-1.277 2.251-3.38 2.011-5.952l-1.014.095zm-8.285-88.659l8.285 88.659 1.014-.095-8.285-88.658-1.014.094z" class="Union_2"/>
    </g>
    <g class="Group 1115">
      <path fill="#FFA6A6" fill-rule="evenodd" d="M116.79 32.511c-3.217-3.788-9.686-5.705-14.448-4.28L35.784 48.146a15.256 15.256 0 00-3.435 1.028c-2.097.631-3.511 1.807-4.16 3.25a7.328 7.328 0 00-.883 1.68l-2.248 6.113c-1.047 2.848-.2 6.168 2.336 9.154L80.1 131.436c5.09 5.993 15.381 8.955 22.79 6.56l60.772-19.645c2.599-.84 4.594-2.276 5.736-4.128l4.028-6.534a7.35 7.35 0 00.583-1.163c1.688-1.965 1.584-4.77-.622-7.368L116.79 32.51z" class="Union_3" clip-rule="evenodd"/>
      <path fill="#F47474" d="M29.346 50.813c-1.18 1.33-.349 5.137 1.146 6.898l53.25 62.706c8.422 10.211 14.582 9.611 21.991 7.215l64.794-20.256c2.598-.84 4.077-2.923 3.996-5.052l.102-.164c.364 1.649-.039 3.729-.898 5.122l-4.48 7.084c-1.142 1.852-3.389 2.977-5.987 3.817l-60.643 19.604c-7.41 2.395-17.701-.568-22.79-6.56L27.229 69.289c-2.536-2.986-3.383-6.306-2.336-9.154l2.239-6.088a7.335 7.335 0 01.902-1.709c.13-.282 1.125-1.266 1.312-1.525z" class="Subtract_7"/>
      <path fill="#FFC2C5" d="M133.334 118.877l-104-62 50.5 59.5c10.4 13.599 18.333 13.499 23 11.5l30.5-9z" class="Vector 546"/>
      <path fill="#FFC2C5" d="M141.834 115.877l-111.5-66.5 6.5-2 110 67-5 1.5z" class="Vector 547"/>
      <path stroke="#FFF0F0" d="M29.706 50.507c-1.01.858-2.335 3.545.443 7.43l55.215 65.02c3.852 4.537 10.413 7.811 18.225 5.34l67.402-21.199c3.998-1.433 4.547-4.634 3.253-6.159" class="Vector 539"/>
      <path fill="#000" d="M102.342 28.231l-.143-.479.143.48zM32.364 49.17l-.143-.48.143.48zm-4.494 4.257l.402.296.067-.09.021-.11-.49-.096zm-.985 1.823l.469.173-.47-.173zm-1.827 4.967l-.469-.172.47.172zM80.1 131.436l-.38.324.38-.324zm22.79 6.56l-.154-.476.154.476zm60.826-19.663l.154.476-.154-.476zm5.692-4.057l.422.267-.422-.267zm4.869-7.706l-.423-.267.423.267zm.746-1.958l-.484-.126-.006.023-.004.023.494.08zM102.486 28.71c2.268-.679 4.975-.568 7.518.185 2.542.754 4.872 2.135 6.405 3.94l.762-.647c-1.684-1.984-4.197-3.455-6.883-4.251-2.687-.796-5.596-.93-8.089-.185l.287.958zM32.507 49.65l69.979-20.939-.287-.958-69.978 20.939.286.958zm-4.147 3.874c.326-1.667 1.699-3.142 4.147-3.874l-.286-.958c-2.702.808-4.427 2.514-4.842 4.64l.981.192zm-1.006 1.9c.222-.604.53-1.172.918-1.7l-.805-.592a7.862 7.862 0 00-1.052 1.947l.939.345zm-1.826 4.967l1.826-4.967-.939-.345-1.826 4.966.939.346zm2.248 8.657c-2.459-2.895-3.215-6.03-2.248-8.657l-.939-.346c-1.128 3.068-.189 6.573 2.424 9.65l.762-.647zm52.705 62.065L27.776 69.047l-.763.647L79.72 131.76l.762-.648zm22.255 6.408c-3.589 1.16-7.91 1.03-11.973-.139-4.062-1.17-7.814-3.363-10.282-6.269l-.762.648c2.622 3.086 6.56 5.37 10.768 6.582 4.208 1.211 8.737 1.364 12.557.13l-.308-.952zm60.827-19.662l-60.827 19.662.308.952 60.826-19.663-.307-.951zm5.422-3.849c-1.072 1.696-2.94 3.046-5.422 3.849l.307.951c2.647-.856 4.734-2.326 5.96-4.266l-.845-.534zm4.869-7.706l-4.869 7.706.845.534 4.869-7.705-.845-.535zm.675-1.771a4.676 4.676 0 01-.675 1.771l.845.535a5.67 5.67 0 00.817-2.147l-.987-.159zm-1.524-5.05c1.485 1.748 1.917 3.527 1.534 5.004l.968.251c.484-1.871-.102-3.975-1.739-5.903l-.763.647zm-56.596-66.647l56.596 66.646.763-.647-56.597-66.646-.762.647z" class="Union_4"/>
      <g class="Group 1104">
        <path fill="#fff" stroke="#000" d="M62.466 73.785l83.119 9.309-5.273-6.209-83.396-9.635 5.55 6.535z" class="Vector 538_2"/>
        <g class="Subtract_8">
          <path fill="#fff" fill-rule="evenodd" d="M89.423 97.588c5.211 6.136 15.656 9.138 23.329 6.704s9.67-9.381 4.459-15.517c-5.211-6.137-15.656-9.138-23.329-6.704s-9.67 9.381-4.459 15.517zm6.538-2.074c2.76 3.249 8.289 4.838 12.351 3.55 4.062-1.29 5.119-4.967 2.361-8.216-2.759-3.248-8.289-4.837-12.35-3.549-4.063 1.289-5.12 4.967-2.361 8.215z" clip-rule="evenodd"/>
          <path fill="#000" d="M112.428 103.911c-7.41 2.35-17.496-.548-22.528-6.474l-.954.302c5.39 6.347 16.193 9.451 24.13 6.934l-.648-.762zm4.306-14.985c5.032 5.925 3.105 12.634-4.306 14.985l.648.762c7.936-2.517 10.001-9.703 4.612-16.05l-.954.303zm-22.528-6.474c7.41-2.35 17.496.548 22.528 6.474l.954-.303c-5.39-6.346-16.193-9.45-24.13-6.933l.648.762zM89.9 97.437c-5.032-5.926-3.105-12.635 4.306-14.985l-.648-.762c-7.936 2.517-10.001 9.703-4.612 16.05l.954-.303zm18.088 1.245c-3.799 1.205-8.97-.28-11.55-3.319l-.953.303c2.937 3.459 8.825 5.15 13.151 3.779l-.648-.763zM110.196 91c2.58 3.038 1.592 6.478-2.208 7.683l.648.763c4.325-1.372 5.451-5.289 2.513-8.748l-.953.302zm-11.55-3.319c3.799-1.205 8.97.281 11.55 3.32l.953-.303c-2.937-3.459-8.825-5.15-13.15-3.779l.647.762zm-2.208 7.683c-2.58-3.038-1.591-6.478 2.208-7.683l-.648-.762c-4.325 1.372-5.45 5.289-2.513 8.748l.953-.303z"/>
        </g>
        <g class="Subtract_9">
          <path fill="#fff" fill-rule="evenodd" d="M87.07 61.833c5.211 6.136 15.656 9.138 23.329 6.704 7.674-2.434 9.67-9.381 4.459-15.517-5.211-6.137-15.655-9.138-23.329-6.704-7.673 2.434-9.67 9.381-4.459 15.517zm6.539-2.073c2.758 3.248 8.288 4.837 12.35 3.549 4.063-1.29 5.12-4.967 2.361-8.216-2.759-3.248-8.288-4.837-12.35-3.549-4.063 1.289-5.12 4.967-2.361 8.216z" clip-rule="evenodd"/>
          <path fill="#000" d="M110.076 68.156c-7.41 2.35-17.497-.548-22.529-6.474l-.953.302c5.39 6.347 16.192 9.451 24.129 6.934l-.647-.762zm4.306-14.985c5.032 5.925 3.104 12.634-4.306 14.985l.647.762c7.937-2.517 10.001-9.703 4.612-16.05l-.953.303zm-22.529-6.474c7.41-2.35 17.497.548 22.529 6.474l.953-.303c-5.39-6.346-16.193-9.45-24.13-6.933l.648.762zm-4.306 14.985c-5.032-5.925-3.104-12.635 4.306-14.985l-.647-.762c-7.937 2.517-10.002 9.703-4.612 16.05l.953-.303zm18.089 1.245c-3.799 1.205-8.97-.28-11.55-3.319l-.954.303c2.938 3.459 8.825 5.15 13.151 3.779l-.647-.763zm2.207-7.682c2.58 3.038 1.592 6.477-2.207 7.682l.647.763c4.326-1.372 5.451-5.289 2.514-8.748l-.954.303zm-11.55-3.32c3.799-1.204 8.97.282 11.55 3.32l.954-.303c-2.938-3.459-8.826-5.15-13.151-3.779l.647.763zm-2.208 7.683c-2.58-3.038-1.591-6.477 2.208-7.682l-.647-.763c-4.326 1.372-5.451 5.289-2.514 8.748l.953-.303z"/>
        </g>
      </g>
    </g>
    <g class="Group 1117">
      <path fill="#F47474" fill-rule="evenodd" d="M763.524 320.71c-.509-3.929-4.004-8.015-7.806-9.127l-53.148-15.539a12.15 12.15 0 00-2.741-.801c-1.676-.487-3.131-.315-4.19.368a5.825 5.825 0 00-1.321.742l-4.154 3.114c-1.935 1.45-2.807 4.038-2.406 7.134l8.339 64.359c.805 6.214 6.403 12.657 12.397 14.268l49.159 13.21c2.102.565 4.059.47 5.625-.273l5.528-2.623c.318-.151.616-.327.893-.525 1.982-.582 3.129-2.503 2.78-5.198l-8.955-69.109z" class="Union_5" clip-rule="evenodd"/>
      <path fill="#FC999D" d="M697.121 295.104c-1.367.377-2.461 3.284-2.225 5.11l8.425 65.024c1.205 10.479 5.585 12.749 11.578 14.359l52.115 14.545c2.101.565 3.994-.186 4.863-1.645l.139-.066c-.444 1.186-1.327 2.015-2.508 2.366a5.843 5.843 0 01-.908.536l-5.506 2.613c-1.567.743-3.524.838-5.625.274l-49.056-13.183c-5.994-1.611-11.592-8.054-12.397-14.268l-8.322-64.227c-.401-3.096.472-5.684 2.406-7.134l4.137-3.101a5.845 5.845 0 011.345-.752c.208-.133 1.301-.358 1.539-.451z" class="Subtract_10"/>
      <g class="Group 1106_2">
        <path fill="#fff" stroke="#000" stroke-width=".797" d="M709.928 324.678l51.551 42.262-.834-6.438-51.595-42.601.878 6.777z" class="Vector 538_3"/>
        <g class="Subtract_11">
          <path fill="#fff" fill-rule="evenodd" d="M717.634 352.284c.825 6.363 6.509 12.899 12.696 14.598 6.187 1.699 10.534-2.082 9.709-8.444-.824-6.363-6.508-12.899-12.695-14.598-6.187-1.699-10.534 2.081-9.71 8.444zm5.273 1.448c.436 3.369 3.445 6.829 6.721 7.728 3.275.9 5.577-1.102 5.14-4.47-.436-3.369-3.445-6.829-6.721-7.729-3.275-.899-5.577 1.102-5.14 4.471z" clip-rule="evenodd"/>
          <path fill="#000" d="M730.278 366.487c-5.974-1.641-11.463-7.953-12.259-14.097l-.769-.211c.853 6.581 6.732 13.34 13.131 15.098l-.103-.79zm9.377-8.155c.796 6.145-3.402 9.796-9.377 8.155l.103.79c6.399 1.757 10.895-2.153 10.043-8.734l-.769-.211zm-12.26-14.097c5.975 1.641 11.464 7.952 12.26 14.097l.769.211c-.853-6.581-6.732-13.341-13.131-15.098l.102.79zm-9.376 8.155c-.796-6.145 3.402-9.796 9.376-8.155l-.102-.79c-6.399-1.758-10.896 2.152-10.043 8.734l.769.211zm11.558 8.675c-3.064-.841-5.878-4.077-6.286-7.227l-.768-.212c.464 3.587 3.668 7.271 7.156 8.229l-.102-.79zm4.807-4.181c.408 3.15-1.744 5.022-4.807 4.181l.102.79c3.488.958 5.938-1.173 5.474-4.76l-.769-.211zm-6.285-7.227c3.063.841 5.877 4.077 6.285 7.227l.769.211c-.465-3.587-3.669-7.271-7.157-8.229l.103.791zm-4.808 4.181c-.408-3.151 1.744-5.023 4.808-4.181l-.103-.791c-3.488-.958-5.938 1.174-5.473 4.76l.768.212z"/>
        </g>
        <g class="Subtract_12">
          <path fill="#fff" fill-rule="evenodd" d="M731.561 327.352c.825 6.363 6.508 12.899 12.695 14.598 6.187 1.699 10.534-2.081 9.71-8.444-.824-6.363-6.508-12.899-12.695-14.598-6.187-1.699-10.534 2.081-9.71 8.444zm5.273 1.448c.436 3.369 3.445 6.829 6.721 7.728 3.275.9 5.576-1.102 5.14-4.47-.436-3.369-3.446-6.829-6.721-7.728-3.275-.9-5.577 1.102-5.14 4.47z" clip-rule="evenodd"/>
          <path fill="#000" d="M744.205 341.555c-5.975-1.641-11.463-7.953-12.26-14.097l-.768-.211c.853 6.581 6.731 13.341 13.131 15.098l-.103-.79zm9.377-8.155c.796 6.145-3.402 9.796-9.377 8.155l.103.79c6.399 1.758 10.895-2.153 10.042-8.734l-.768-.211zm-12.26-14.097c5.975 1.641 11.464 7.953 12.26 14.097l.768.211c-.852-6.581-6.731-13.341-13.13-15.098l.102.79zm-9.377 8.155c-.796-6.145 3.402-9.796 9.377-8.155l-.102-.79c-6.4-1.758-10.896 2.153-10.043 8.734l.768.211zm11.558 8.675c-3.063-.841-5.877-4.077-6.285-7.227l-.769-.211c.465 3.587 3.669 7.271 7.157 8.229l-.103-.791zm4.808-4.181c.408 3.151-1.744 5.023-4.808 4.181l.103.791c3.487.957 5.938-1.174 5.473-4.761l-.768-.211zm-6.286-7.227c3.063.841 5.878 4.077 6.286 7.227l.768.211c-.464-3.586-3.669-7.271-7.156-8.228l.102.79zm-4.807 4.181c-.408-3.151 1.744-5.022 4.807-4.181l-.102-.79c-3.488-.958-5.938 1.173-5.474 4.76l.769.211z"/>
        </g>
      </g>
      <path stroke="#FFF0F0" stroke-width=".797" d="M697.887 295.005c-1.048.136-3.099 1.358-2.926 5.162l8.736 67.422c.609 4.704 3.578 9.738 9.873 11.473l54.267 15.046c3.295.775 4.553-1.87 4.451-2.658" class="Vector 541_2"/>
      <path fill="#000" d="M756.344 311.503l-.112.382.112-.382zm-55.878-16.337l.112-.383-.112.383zm-4.85.897l.141.373.083-.032.062-.064-.286-.277zm-1.452.794l-.239-.319.239.319zm-3.375 2.529l.239.319-.239-.319zm5.932 71.493l-.395.052.395-.052zm12.397 14.268l-.103.385.103-.385zm49.204 13.223l-.104.385.104-.385zm5.565-.246l-.167-.362.167.362zm6.597-3.042l-.167-.362.167.362zm1.339-.977l-.268-.294-.014.012-.013.014.295.268zm-15.591-82.22c1.812.53 3.573 1.778 4.947 3.384 1.374 1.606 2.334 3.54 2.576 5.412l.791-.103c-.267-2.057-1.31-4.13-2.761-5.827-1.452-1.697-3.339-3.049-5.329-3.631l-.224.765zm-55.878-16.337l55.878 16.337.224-.765-55.878-16.337-.224.765zm-4.452.792c.941-.973 2.498-1.363 4.452-.792l.224-.765c-2.156-.63-4.049-.238-5.249 1.003l.573.554zm-1.499.835a5.467 5.467 0 011.354-.739l-.282-.746a6.275 6.275 0 00-1.55.848l.478.637zm-3.375 2.53l3.375-2.53-.478-.637-3.375 2.53.478.637zm-2.25 6.765c-.389-3.002.464-5.426 2.25-6.765l-.478-.637c-2.084 1.562-2.976 4.313-2.563 7.504l.791-.102zm8.338 64.358l-8.338-64.358-.791.102 8.339 64.359.79-.103zm12.106 13.935c-2.904-.781-5.737-2.741-7.947-5.285-2.21-2.543-3.768-5.637-4.159-8.65l-.79.103c.415 3.201 2.058 6.436 4.347 9.07 2.289 2.634 5.252 4.701 8.342 5.531l.207-.769zm49.203 13.222l-49.203-13.222-.207.769 49.203 13.223.207-.77zm5.295-.223c-1.453.67-3.287.763-5.295.223l-.207.77c2.141.575 4.175.497 5.836-.269l-.334-.724zm6.597-3.042l-6.597 3.042.334.724 6.597-3.042-.334-.724zm1.211-.883c-.33.364-.733.663-1.211.883l.334.724a4.553 4.553 0 001.467-1.07l-.59-.537zm1.181-4.047c.236 1.82-.251 3.199-1.154 4.021l.536.589c1.144-1.04 1.669-2.706 1.409-4.713l-.791.103zm-8.954-69.109l8.954 69.109.791-.103-8.954-69.109-.791.103z" class="Union_6"/>
    </g>
    <g class="Group 1119">
      <rect width="112.141" height="96.835" fill="#FFFB9B" stroke="#000" stroke-width="1.064" class="Rectangle 673" rx="9.572" transform="matrix(.79885 -.60153 .23004 .97318 656.565 40.456)"/>
      <path fill="#E8DB6B" d="M678.197 128.685c1.338 1.337 5.433.691 7.396-.787l69.899-52.633c11.366-8.305 11.112-14.883 9.031-22.9l-17.471-70.058c-.729-2.81-2.849-4.511-5.114-4.558l-.169-.118c1.774-.284 3.958.274 5.383 1.273l7.243 5.197c1.895 1.328 2.95 3.784 3.68 6.595l17.035 65.612c2.082 8.016-1.705 18.76-8.385 23.789l-69.042 51.987c-3.329 2.507-6.906 3.2-9.865 1.91l-6.325-2.756a7.819 7.819 0 01-1.758-1.065c-.292-.154-1.274-1.273-1.538-1.488z" class="Subtract_13"/>
      <g class="Group 1104_2">
        <path fill="#fff" stroke="#000" stroke-width="1.064" d="M704.652 94.95l15.064-87.674-6.921 5.212-15.428 87.947 7.285-5.486z" class="Vector 538_4"/>
        <g class="Subtract_14">
          <path fill="#fff" fill-rule="evenodd" d="M731.606 67.81c6.84-5.15 10.677-16.053 8.571-24.352s-9.358-10.852-16.198-5.701c-6.84 5.15-10.678 16.053-8.572 24.352 2.107 8.3 9.359 10.852 16.199 5.702zm-1.796-7.07c3.622-2.727 5.653-8.5 4.538-12.893-1.115-4.394-4.954-5.745-8.575-3.019-3.621 2.727-5.653 8.5-4.538 12.893 1.115 4.394 4.954 5.745 8.575 3.018z" clip-rule="evenodd"/>
          <path fill="#000" d="M739.752 43.778c2.034 8.014-1.672 18.544-8.277 23.517l.261 1.031c7.075-5.327 11.044-16.604 8.866-25.188l-.85.64zm-15.642-5.506c6.605-4.973 13.608-2.508 15.642 5.506l.85-.64c-2.178-8.584-9.679-11.224-16.754-5.897l.262 1.031zm-8.278 23.517c-2.033-8.014 1.672-18.543 8.278-23.517l-.262-1.03c-7.074 5.327-11.044 16.603-8.865 25.187l.849-.64zm15.643 5.506c-6.606 4.974-13.609 2.509-15.643-5.506l-.849.64c2.178 8.584 9.679 11.224 16.753 5.897l-.261-1.03zm2.448-19.128c1.043 4.108-.857 9.507-4.243 12.057l.261 1.03c3.856-2.903 6.019-9.049 4.832-13.727l-.85.64zm-8.019-2.823c3.386-2.55 6.977-1.286 8.019 2.823l.85-.64c-1.187-4.678-5.275-6.117-9.131-3.214l.262 1.03zM721.66 57.4c-1.043-4.109.857-9.507 4.244-12.057l-.262-1.031c-3.856 2.903-6.019 9.05-4.832 13.728l.85-.64zm8.02 2.823c-3.387 2.55-6.977 1.286-8.02-2.823l-.85.64c1.187 4.678 5.276 6.117 9.131 3.214l-.261-1.031z"/>
        </g>
        <g class="Subtract_15">
          <path fill="#fff" fill-rule="evenodd" d="M693.497 68.08c6.84-5.15 10.677-16.053 8.571-24.352s-9.358-10.852-16.198-5.701c-6.84 5.15-10.677 16.053-8.571 24.352 2.106 8.3 9.358 10.852 16.198 5.702zm-1.795-7.07c3.621-2.728 5.653-8.5 4.538-12.893-1.115-4.394-4.955-5.745-8.576-3.019-3.621 2.727-5.653 8.5-4.538 12.893 1.115 4.393 4.955 5.745 8.576 3.018z" clip-rule="evenodd"/>
          <path fill="#000" d="M701.643 44.048c2.034 8.014-1.672 18.543-8.277 23.517l.262 1.031c7.074-5.327 11.043-16.604 8.865-25.188l-.85.64zm-15.642-5.506c6.605-4.973 13.609-2.508 15.642 5.506l.85-.64c-2.178-8.584-9.679-11.224-16.754-5.897l.262 1.031zm-8.277 23.517c-2.034-8.014 1.672-18.543 8.277-23.517l-.262-1.03c-7.074 5.326-11.043 16.603-8.865 25.187l.85-.64zm15.642 5.506c-6.605 4.974-13.609 2.509-15.642-5.506l-.85.64c2.178 8.584 9.679 11.224 16.754 5.897l-.262-1.03zm2.449-19.128c1.042 4.108-.858 9.507-4.244 12.057l.262 1.03c3.855-2.903 6.019-9.049 4.831-13.727l-.849.64zm-8.02-2.823c3.386-2.55 6.977-1.286 8.02 2.823l.849-.64c-1.187-4.679-5.275-6.117-9.131-3.214l.262 1.03zm-4.244 12.057c-1.043-4.11.857-9.507 4.244-12.057l-.262-1.031c-3.855 2.903-6.019 9.05-4.832 13.728l.85-.64zm8.02 2.823c-3.387 2.55-6.977 1.286-8.02-2.823l-.85.64c1.188 4.678 5.276 6.117 9.132 3.214l-.262-1.031z"/>
        </g>
      </g>
      <path fill="#FBE553" d="M753.479 7.366l-7.977-29.781 11.168 8.509 7.977 29.249-11.168-7.977z" class="Vector 543"/>
      <path fill="#EFBC59" d="M689.131 134.467l-9.573-4.786c1.702 0 2.127.531 5.318-1.064l27.122-19.677 10.104 4.787-23.931 17.549c-4.254 2.978-5.85 3.723-9.04 3.191z" class="Vector 544"/>
      <path stroke="#FFC56F" stroke-width="1.064" d="M678.229 129.164c.859 1.141 3.652 2.747 7.955.043l72.477-54.574c5.057-3.808 9.78-10.872 7.581-19.405L747.629-18.16c-1.307-4.379-5.214-5.534-6.914-4.254" class="Vector 545"/>
      <path stroke="#fff" stroke-width="1.064" d="M677.894 128.283c.847 1.126 3.618 2.701 7.917-.007l72.477-54.574c5.057-3.808 8.942-10.57 6.806-19.018l-18.309-72.887c-1.273-4.335-4.637-5.117-6.337-3.838" class="Vector 539_2"/>
      <path fill="#000" d="M658.77 49.772l-.518.122.518-.122zm5.445-15.074l-.32-.425.32.425zm12.426 90.68l-.517.122.517-.122zm4.242 5.038l.339-.41-.092-.076-.115-.03-.132.516zm1.874 1.159l-.213.487.213-.487zm5.16 2.248l.212-.487-.212.487zm9.864-1.91l-.32-.425.32.425zm69.184-52.094l.32.425-.32-.425zm8.386-23.79l-.515.134.515-.133zM758.264-9.778l.514-.134-.514.134zm-3.954-6.296l.31-.432-.31.432zm-7.878-5.65l-.31.432.31-.432zm-2.036-.915l-.163.506.024.008.024.005.115-.519zm-5.891 1.398l.32.425-.32-.425zM659.287 49.65c-.579-2.451-.293-5.318.665-7.97.959-2.653 2.57-5.041 4.582-6.556l-.639-.85c-2.212 1.665-3.93 4.241-4.943 7.044-1.012 2.803-1.337 5.883-.7 8.577l1.035-.245zm17.872 75.606l-17.872-75.606-1.035.245 17.872 75.606 1.035-.245zm3.856 4.645c-1.751-.449-3.231-1.998-3.856-4.645l-1.035.245c.69 2.92 2.394 4.858 4.626 5.431l.265-1.031zm1.954 1.187a7.283 7.283 0 01-1.747-1.081l-.679.819c.61.506 1.279.922 2.001 1.237l.425-.975zm5.16 2.249l-5.16-2.249-.425.975 5.16 2.249.425-.975zm9.332-1.848c-3.227 2.43-6.602 3.038-9.332 1.848l-.425.975c3.186 1.388 6.967.61 10.397-1.973l-.64-.85zm69.184-52.094l-69.184 52.094.64.85 69.184-52.094-.64-.85zm8.191-23.23c1.008 3.883.601 8.462-.894 12.703-1.495 4.24-4.058 8.088-7.297 10.527l.64.85c3.441-2.591 6.112-6.63 7.66-11.023 1.548-4.392 1.993-9.192.92-13.325l-1.029.267zm-17.087-65.81l17.087 65.81 1.029-.268-17.087-65.809-1.029.267zM754-15.643c1.735 1.244 3.052 3.312 3.749 5.997l1.029-.267c-.743-2.864-2.174-5.171-4.158-6.594l-.62.864zm-7.878-5.65l7.878 5.65.62-.864-7.878-5.65-.62.864zm-1.841-.828a4.985 4.985 0 011.841.828l.62-.864a6.048 6.048 0 00-2.231-1.002l-.23 1.038zm-5.456 1.304c1.948-1.467 3.863-1.815 5.408-1.317l.326-1.012c-1.956-.63-4.226-.138-6.374 1.48l.64.849zm-74.291 55.94l74.291-55.94-.64-.85-74.29 55.94.639.85z" class="Union_7"/>
    </g>
    <g class="Group 1108">
      <path fill="#FFA6A6" fill-rule="evenodd" d="M62.26 616.86l4.644-73.527c.319-5.052 4.432-10.555 9.187-12.292l81.013-29.592 2.932-1.347c1.456-.669 2.885-1.081 4.237-1.242 2.363-.661 4.388-.197 5.709 1.119a7.285 7.285 0 011.864 1.687l5.267 6.724c1.366 1.744 2.034 4.157 1.919 6.935l-2.816 68.403c-.327 7.923-6.788 16.71-14.309 19.457l-81.865 29.904c-3.748 1.368-7.219 1.006-9.57-.999l-5.564-4.745a7.39 7.39 0 01-.77-.763c-1.467-1.08-2.296-3.015-2.142-5.546-.099-1.235-.027-2.565.225-3.958l.039-.218z" class="Union_8" clip-rule="evenodd"/>
      <path fill="#F47474" d="M61.936 624.281c.888 1.663 4.98 2.234 7.28 1.394l82.421-28.937c13.245-4.624 14.393-11.95 14.732-20.196l3.654-71.862c.147-3.57-.962-4.805-2.956-5.584 2.179.299 3.011 1.025 4.279 2.644l5.093 6.103c1.422 1.816 2.541 5.304 2.422 8.196l-2.844 67.396c-.34 8.247-6.816 17.644-14.643 20.503l-81.845 29.234c-3.9 1.424-7.513 1.048-9.96-1.039l-5.231-4.462a7.77 7.77 0 01-1.367-1.525c-.234-.232-.846-1.583-1.035-1.865z" class="Subtract_16"/>
      <g class="Group 1105">
        <path fill="#fff" stroke="#000" stroke-width="1.018" d="M97.263 600.735l39.78-79.225-8.109 2.962-40.207 79.381 8.536-3.118z" class="Vector 538_5"/>
        <g class="Subtract_17">
          <path fill="#fff" fill-rule="evenodd" d="M130.826 582.674c8.015-2.928 14.835-12.211 15.233-20.734.398-8.523-5.777-13.06-13.791-10.132-8.015 2.928-14.835 12.21-15.233 20.734-.398 8.523 5.777 13.059 13.791 10.132zm.339-7.263c4.243-1.549 7.853-6.464 8.064-10.976.211-4.513-3.058-6.914-7.301-5.364-4.243 1.55-7.854 6.464-8.064 10.976-.211 4.513 3.058 6.914 7.301 5.364z" clip-rule="evenodd"/>
          <path fill="#000" d="M145.581 562.115c-.385 8.242-6.98 17.219-14.731 20.05l-.048 1.018c8.279-3.025 15.324-12.613 15.735-21.418l-.956.35zm-13.337-9.798c7.75-2.831 13.721 1.555 13.337 9.798l.956-.35c.411-8.804-5.967-13.49-14.246-10.466l-.047 1.018zm-14.731 20.05c.385-8.242 6.98-17.219 14.731-20.05l.047-1.018c-8.278 3.024-15.323 12.613-15.734 21.418l.956-.35zm13.337 9.798c-7.751 2.831-13.722-1.555-13.337-9.798l-.956.35c-.411 8.804 5.967 13.49 14.245 10.466l.048-1.018zm7.901-17.556c-.198 4.232-3.583 8.84-7.562 10.294l-.048 1.017c4.507-1.646 8.343-6.867 8.567-11.66l-.957.349zm-6.847-5.03c3.979-1.453 7.045.799 6.847 5.03l.957-.349c.223-4.793-3.249-7.344-7.756-5.698l-.048 1.017zm-7.562 10.294c.198-4.232 3.583-8.84 7.562-10.294l.048-1.017c-4.507 1.646-8.343 6.867-8.567 11.66l.957-.349zm6.847 5.03c-3.979 1.453-7.045-.799-6.847-5.03l-.957.349c-.223 4.793 3.249 7.345 7.756 5.698l.048-1.017z"/>
        </g>
        <g class="Subtract_18">
          <path fill="#fff" fill-rule="evenodd" d="M94.412 571.882c8.014-2.927 14.834-12.21 15.232-20.734.398-8.523-5.776-13.059-13.79-10.132-8.016 2.928-14.835 12.211-15.233 20.734-.399 8.524 5.776 13.06 13.79 10.132zm.338-7.262c4.243-1.55 7.854-6.464 8.065-10.977.21-4.512-3.058-6.914-7.302-5.364-4.243 1.55-7.853 6.464-8.064 10.977-.21 4.512 3.058 6.914 7.301 5.364z" clip-rule="evenodd"/>
          <path fill="#000" d="M109.166 551.323c-.385 8.243-6.98 17.22-14.73 20.051l-.048 1.017c8.279-3.024 15.323-12.613 15.735-21.417l-.957.349zm-13.337-9.798c7.751-2.831 13.722 1.556 13.337 9.798l.957-.349c.411-8.805-5.967-13.49-14.246-10.466l-.048 1.017zM81.1 561.576c.385-8.243 6.98-17.22 14.73-20.051l.048-1.017c-8.279 3.024-15.324 12.613-15.735 21.417l.957-.349zm13.336 9.798c-7.75 2.831-13.721-1.556-13.336-9.798l-.957.349c-.411 8.804 5.967 13.49 14.246 10.466l.047-1.017zm7.901-17.556c-.197 4.231-3.583 8.84-7.562 10.293l-.047 1.018c4.507-1.647 8.342-6.867 8.566-11.661l-.957.35zm-6.846-5.03c3.979-1.454 7.044.798 6.846 5.03l.957-.35c.224-4.793-3.249-7.344-7.756-5.698l-.047 1.018zm-7.563 10.293c.198-4.231 3.584-8.84 7.563-10.293l.047-1.018c-4.507 1.647-8.342 6.867-8.566 11.661l.956-.35zm6.847 5.03c-3.979 1.454-7.044-.798-6.847-5.03l-.956.35c-.224 4.793 3.248 7.344 7.755 5.698l.048-1.018z"/>
        </g>
      </g>
      <path fill="#FFC2C5" d="M138.017 509.119l28.111 65.448 3.603-68.306c.43-6.434-3.574-7.924-4.85-7.136l-26.864 9.994z" class="Vector 542"/>
      <path stroke="#FFF0F0" stroke-width="1.018" d="M62.006 623.495c.481 1.319 2.729 3.678 7.613 2.342l84.569-30.539c5.926-2.164 11.59-7.486 12.003-16.16l3.675-74.802c.043-4.501-3.99-5.573-4.983-5.211" class="Vector 540"/>
      <path fill="#000" d="M66.761 543.659l-.508-.032.508.032zm-4.927 78.015l.508.032-.508-.032zm2.738 5.941l.407-.306-.069-.092-.101-.053-.237.451zm1.121 1.197l.33-.388-.33.388zm4.618 3.938l-.33.387.33-.387zm105.743-48.363l-.509-.021.509.021zm2.819-68.46l-.509-.021.509.021zm-1.868-6.869l.404-.31-.404.31zm-5.957-7.78l-.404.31.404-.31zm-.445-.515l-.41.302.021.028.024.025.365-.355zm-6.902-1.45l.174.478-.174-.478zM67.27 543.691c.151-2.407 1.213-4.953 2.83-7.116 1.616-2.163 3.758-3.902 6.023-4.73l-.35-.956c-2.489.909-4.781 2.791-6.49 5.076-1.708 2.286-2.863 5.017-3.03 7.662l1.016.064zm-4.928 78.015l4.927-78.015-1.016-.064-4.927 78.015 1.016.064zm2.467 5.458c-1.614-.849-2.639-2.732-2.467-5.458l-1.016-.064c-.19 3.01.947 5.338 3.009 6.423l.474-.901zm1.215 1.26a6.855 6.855 0 01-1.045-1.115l-.815.611c.353.47.752.898 1.199 1.279l.66-.775zm4.617 3.938l-4.617-3.938-.661.775 4.617 3.938.661-.775zm9.064.907c-3.633 1.328-6.894.944-9.064-.907l-.66.775c2.531 2.159 6.212 2.5 10.074 1.089l-.35-.957zm81.866-29.903l-81.866 29.903.35.957 81.865-29.904-.349-.956zm13.974-19c-.158 3.838-1.807 7.92-4.358 11.389-2.55 3.468-5.97 6.279-9.616 7.611l.349.956c3.874-1.415 7.446-4.371 10.088-7.964 2.641-3.592 4.386-7.865 4.555-11.95l-1.018-.042zm2.819-68.46l-2.819 68.46 1.018.042 2.819-68.46-1.018-.042zm-1.763-6.538c1.242 1.622 1.872 3.883 1.763 6.538l1.018.042c.116-2.831-.552-5.344-1.973-7.2l-.808.62zm-5.957-7.78l5.957 7.78.808-.62-5.956-7.779-.809.619zm-.406-.47c.142.146.278.302.406.47l.809-.619a6.295 6.295 0 00-.485-.562l-.73.711zm-6.363-1.327c2.834-1.035 5.097-.383 6.318 1.274l.82-.604c-1.559-2.117-4.351-2.772-7.487-1.626l.349.956zm-87.752 32.054l87.752-32.054-.349-.956-87.752 32.054.349.956z" class="Union_9"/>
    </g>
    <path fill="#867AA8" d="M351.109 440h2.044v-4.454h1.937l2.761 4.454h2.257l-2.852-4.606c1.266-.321 2.12-1.465 2.12-2.853 0-1.8-1.373-3.005-3.401-3.005h-4.866V440zm2.044-6.284v-2.349h2.822c.839 0 1.403.473 1.403 1.174 0 .702-.564 1.175-1.403 1.175h-2.822zm11.269 6.498c1.861 0 3.447-1.129 3.95-2.807h-1.861c-.35.763-1.189 1.281-2.089 1.281-1.19 0-2.105-.808-2.273-1.998h6.254l.152-.152v-.351c0-2.41-1.662-4.027-4.133-4.027s-4.134 1.617-4.134 4.027 1.663 4.027 4.134 4.027zm-2.151-5.049a2.3 2.3 0 012.151-1.48c.961 0 1.815.595 2.15 1.48h-4.301zm8.027 4.835h1.83v-6.101h1.602v-1.526h-1.602v-.854c0-.396.274-.671.671-.671h.931v-1.312c-.199-.122-.626-.213-1.083-.213-1.404 0-2.349.885-2.349 2.212v.838h-1.221v1.526h1.221V440zm7.634.214c1.861 0 3.447-1.129 3.951-2.807h-1.861c-.351.763-1.19 1.281-2.09 1.281-1.19 0-2.105-.808-2.273-1.998h6.254l.153-.152v-.351c0-2.41-1.663-4.027-4.134-4.027s-4.133 1.617-4.133 4.027 1.662 4.027 4.133 4.027zm-2.151-5.049a2.3 2.3 0 012.151-1.48 2.3 2.3 0 012.151 1.48h-4.302zM383.16 440h1.83v-4.515c0-1.022.809-1.708 2.029-1.708h.625v-1.404a2.249 2.249 0 00-.808-.152c-.702 0-1.449.427-1.846 1.052v-.9h-1.83V440zm5.467 0h1.83v-4.515c0-1.022.809-1.708 2.029-1.708h.625v-1.404a2.253 2.253 0 00-.808-.152c-.702 0-1.449.427-1.846 1.052v-.9h-1.83V440zm8.516.214c.9 0 1.892-.412 2.471-1.038V440h1.831v-7.627h-1.831v.824c-.579-.625-1.571-1.037-2.471-1.037-2.379 0-3.965 1.617-3.965 4.027s1.586 4.027 3.965 4.027zm.184-1.617c-1.389 0-2.319-.961-2.319-2.41 0-1.449.93-2.41 2.319-2.41 1.372 0 2.287.961 2.287 2.41 0 1.449-.915 2.41-2.287 2.41zm5.525 1.403h1.83v-10.464h-1.83V440zm11.888.214c2.502 0 4.53-1.739 5.034-4.317h-1.968c-.412 1.495-1.647 2.486-3.066 2.486-2.029 0-3.401-1.449-3.401-3.615 0-2.166 1.372-3.615 3.401-3.615 1.297 0 2.486.9 2.974 2.242h2.014c-.61-2.44-2.608-4.072-4.988-4.072-3.264 0-5.445 2.181-5.445 5.445 0 3.264 2.181 5.446 5.445 5.446zm9.964 0c2.471 0 4.134-1.617 4.134-4.027s-1.663-4.027-4.134-4.027-4.133 1.617-4.133 4.027 1.662 4.027 4.133 4.027zm0-1.617c-1.373 0-2.303-.961-2.303-2.41 0-1.449.93-2.41 2.303-2.41 1.373 0 2.303.961 2.303 2.41 0 1.449-.93 2.41-2.303 2.41zm8.95 1.617c.93 0 1.952-.428 2.532-1.053V440h1.83v-10.464h-1.83v3.676c-.58-.625-1.602-1.052-2.532-1.052-2.41 0-4.027 1.617-4.027 4.027s1.617 4.027 4.027 4.027zm.183-1.617c-1.418 0-2.379-.961-2.379-2.41 0-1.449.961-2.41 2.379-2.41 1.403 0 2.349.961 2.349 2.41 0 1.449-.946 2.41-2.349 2.41zm9.412 1.617c1.861 0 3.447-1.129 3.951-2.807h-1.861c-.351.763-1.19 1.281-2.09 1.281-1.189 0-2.105-.808-2.272-1.998h6.253l.153-.152v-.351c0-2.41-1.663-4.027-4.134-4.027s-4.133 1.617-4.133 4.027 1.662 4.027 4.133 4.027zm-2.15-5.049a2.298 2.298 0 012.15-1.48 2.3 2.3 0 012.151 1.48h-4.301z" class="Referral Code"/>
    <path fill="url(#pattern0)" d="M331 578h137v137H331z" class="image 147"/>
    <g class="Group 1120">
      <path fill="#73F9E3" stroke="#000" stroke-width="1.19" d="M767.31 627.16l7.548-10.969-13.272 1.053-13.939 1.106-.915.073.307-.865 4.675-13.178 4.453-12.547-12.547 4.453-13.178 4.675-.865.307.073-.915 1.106-13.939 1.053-13.272-10.969 7.548-11.518 7.926-.756.52-.167-.902-2.54-13.749.522-.097-.522.097-2.418-13.092-8.641 10.128-9.074 10.637-.596.698-.394-.828-6.011-12.624-5.726-12.02-5.724 12.02-.49-.234.49.234-6.013 12.624-.394.828-.596-.698-9.074-10.637-8.639-10.128-2.419 13.092-2.539 13.749-.167.902-.756-.52-11.519-7.926.332-.484-.333.484-10.966-7.548 1.052 13.272 1.106 13.939.073.915-.865-.307-13.178-4.675.192-.539-.192.539-12.547-4.453 4.451 12.547 4.675 13.178.307.865-.915-.073-13.937-1.106-13.272-1.053 7.546 10.969 7.928 11.518.52.756-.902.167-13.751 2.54-13.092 2.418 10.13 8.641 10.637 9.074.698.596-.828.394-12.624 6.011h0l-12.02 5.726 12.02 5.724 12.624 6.011.828.394-.698.596-10.637 9.076h0l-10.13 8.639 13.092 2.419h0l13.751 2.539.902.167-.52.756-7.928 11.519-7.546 10.968 13.272-1.053 13.937-1.106.915-.073-.307.865-4.675 13.178-4.451 12.547 12.547-4.451 13.178-4.675.865-.307-.073.915-1.106 13.937-1.053 13.272 10.968-7.546 11.519-7.928.756-.52.167.902 2.539 13.751h0l2.419 13.092 8.639-10.13.453.386-.453-.386 9.074-10.637.596-.698.394.828 6.013 12.624h0l5.724 12.02 5.726-12.02h0l6.011-12.624.394-.828.596.698 9.074 10.637 8.641 10.13 2.418-13.092 2.54-13.751.167-.902.756.52 11.518 7.928 10.969 7.546-1.053-13.272-1.106-13.937-.073-.915.865.307 13.178 4.675 12.547 4.451-4.453-12.547.511-.182-.511.182-4.675-13.178-.307-.865.915.073 13.939 1.106 13.272 1.052-7.548-10.966.49-.338-.49.337-7.926-11.519-.52-.756.902-.167 13.749-2.539 13.092-2.419-10.128-8.639.386-.453-.386.453-10.637-9.076-.698-.596.828-.394 12.624-6.011 12.02-5.724-12.02-5.726-12.624-6.011-.828-.394.698-.596 10.637-9.074 10.128-8.641-13.092-2.418.097-.522-.097.522-13.749-2.54-.902-.167.52-.756 7.926-11.518z" class="Vector"/>
      <g class="%">
        <path fill="#fff" d="M680.218 675.326c-.825-2.665-.854-4.82-.089-6.465.779-1.649 2.17-2.783 4.171-3.403 2.07-.641 3.885-.498 5.446.427 1.57.907 2.77 2.699 3.599 5.378.825 2.664.848 4.821.069 6.47-.766 1.645-2.149 2.778-4.151 3.397-2.07.641-3.89.507-5.46-.4-1.561-.925-2.756-2.726-3.585-5.404zm4.431-1.416c.599 1.934 1.224 3.163 1.875 3.688.489.382 1.031.481 1.626.297.609-.188 1.007-.578 1.194-1.17.228-.797.042-2.162-.556-4.096-.599-1.935-1.215-3.159-1.849-3.675-.493-.395-1.044-.499-1.653-.311-.595.185-.986.573-1.173 1.164-.242.801-.063 2.169.536 4.103zm13.709 21.591l-4.221 1.306 6.131-36.291 4.098-1.269-6.008 36.254zm6.793-10.662c-.825-2.665-.855-4.82-.089-6.465.779-1.649 2.183-2.788 4.212-3.416 2.042-.632 3.844-.486 5.405.439 1.574.921 2.774 2.714 3.599 5.378.829 2.678.854 4.842.075 6.491-.766 1.645-2.15 2.778-4.151 3.397-2.07.641-3.892.501-5.466-.42-1.561-.925-2.756-2.726-3.585-5.404zm4.437-1.396c.598 1.934 1.221 3.157 1.869 3.668.493.396 1.037.501 1.632.317.609-.188 1-.576 1.174-1.164.241-.8.062-2.168-.536-4.102-.599-1.934-1.217-3.166-1.855-3.695-.489-.382-1.038-.479-1.647-.291-.608.189-1 .577-1.173 1.164-.242.801-.063 2.169.536 4.103z"/>
        <path fill="#000" d="M680.129 668.861l-.694-.327-.002.004.696.323zm9.617-2.976l-.391.66.007.004.384-.664zm3.668 11.848l-.694-.328-.002.004.696.324zm-9.611 2.997l-.391.661.007.004.384-.665zm2.721-3.132l-.481.598.008.007.473-.605zm2.82-.873l.732.232.003-.011.003-.01-.738-.211zm-2.405-7.771l.484-.595-.004-.003-.48.598zm-2.826.853l-.732-.232-.003.011.735.221zm14.245 25.694l.227.733.452-.14.078-.468-.757-.125zm-4.221 1.306l-.756-.128-.208 1.23 1.191-.369-.227-.733zm6.131-36.291l-.227-.734-.451.14-.079.466.757.128zm4.098-1.269l.757.126.203-1.227-1.187.368.227.733zm.696 19.127l-.694-.328-.002.004.696.324zm9.617-2.977l-.391.661.003.002.388-.663zm3.674 11.869l-.694-.328-.002.004.696.324zm-9.617 2.977l-.392.66.004.003.388-.663zm2.721-3.132l.48-.599-.005-.004-.475.603zm2.806-.847l-.735-.221-.001.004.736.217zm-2.391-7.797l.489-.591-.008-.007-.009-.006-.472.604zm-2.82.873l.734.222.001-.004-.735-.218zm-28.101-4.241c-.797-2.577-.777-4.514-.126-5.914l-1.392-.647c-.879 1.889-.8 4.262.052 7.015l1.466-.454zm-.128-5.91c.673-1.425 1.875-2.431 3.704-2.998l-.453-1.466c-2.174.673-3.754 1.935-4.639 3.809l1.388.655zm3.704-2.998c1.907-.59 3.489-.439 4.828.354l.782-1.321c-1.783-1.057-3.831-1.19-6.063-.499l.453 1.466zm4.835.358c1.332.77 2.448 2.35 3.25 4.94l1.466-.453c-.856-2.766-2.139-4.771-3.948-5.816l-.768 1.329zm3.25 4.94c.797 2.576.771 4.513.108 5.916l1.388.656c.895-1.895.823-4.271-.03-7.025l-1.466.453zm.106 5.92c-.66 1.418-1.852 2.422-3.682 2.988l.454 1.466c2.173-.672 3.748-1.933 4.62-3.806l-1.392-.648zm-3.682 2.988c-1.909.591-3.5.448-4.849-.331l-.768 1.329c1.791 1.035 3.84 1.159 6.071.468l-.454-1.466zm-4.842-.327c-1.328-.787-2.44-2.38-3.243-4.971l-1.466.454c.856 2.764 2.133 4.775 3.927 5.838l.782-1.321zm-.278-5.933c.307.991.627 1.826.967 2.493.333.657.712 1.205 1.16 1.566l.963-1.196c-.204-.164-.464-.492-.755-1.065-.286-.563-.577-1.309-.869-2.252l-1.466.454zm2.135 4.066c.688.537 1.492.683 2.326.425l-.454-1.466c-.356.11-.636.058-.926-.169l-.946 1.21zm2.326.425c.841-.26 1.433-.832 1.699-1.671l-1.463-.464c-.109.345-.314.552-.69.669l.454 1.466zm1.705-1.692c.156-.546.153-1.209.054-1.936-.1-.739-.308-1.608-.615-2.598l-1.466.454c.292.943.475 1.724.56 2.351.087.638.063 1.057-.009 1.307l1.476.422zm-.561-4.534c-.307-.991-.625-1.824-.959-2.487-.328-.653-.699-1.199-1.139-1.556l-.968 1.191c.194.158.448.482.736 1.054.282.562.571 1.308.864 2.252l1.466-.454zm-2.102-4.046c-.693-.557-1.51-.709-2.359-.446l.453 1.467c.368-.114.653-.059.946.176l.96-1.197zm-2.359-.446c-.835.258-1.415.833-1.679 1.665l1.463.464c.111-.351.313-.552.669-.662l-.453-1.467zm-1.682 1.676c-.166.55-.169 1.217-.073 1.947.097.742.304 1.612.611 2.604l1.466-.454c-.292-.943-.473-1.723-.555-2.349-.084-.637-.055-1.055.02-1.306l-1.469-.442zm14.753 25.182l-4.22 1.306.453 1.466 4.221-1.306-.454-1.466zm-3.237 2.167l6.131-36.292-1.514-.255-6.13 36.291 1.513.256zm5.601-35.686l4.098-1.269-.454-1.466-4.098 1.268.454 1.467zm3.114-2.127l-6.009 36.253 1.515.251 6.008-36.253-1.514-.251zm2.275 25.49c-.798-2.577-.778-4.514-.126-5.914l-1.392-.648c-.879 1.89-.8 4.263.052 7.015l1.466-.453zm-.128-5.91c.672-1.422 1.884-2.435 3.745-3.011l-.454-1.466c-2.198.68-3.793 1.945-4.679 3.821l1.388.656zm3.745-3.011c1.875-.58 3.446-.428 4.787.367l.782-1.321c-1.781-1.055-3.814-1.196-6.023-.512l.454 1.466zm4.79.369c1.34.783 2.456 2.367 3.253 4.942l1.467-.454c-.853-2.754-2.136-4.755-3.945-5.813l-.775 1.325zm3.253 4.942c.802 2.59.777 4.534.115 5.936l1.388.656c.895-1.895.82-4.279-.036-7.046l-1.467.454zm.113 5.94c-.66 1.418-1.852 2.422-3.682 2.988l.454 1.466c2.173-.672 3.748-1.933 4.619-3.806l-1.391-.648zm-3.682 2.988c-1.906.59-3.498.442-4.852-.349l-.775 1.325c1.795 1.049 3.848 1.182 6.081.49l-.454-1.466zm-4.848-.347c-1.328-.787-2.441-2.38-3.243-4.971l-1.466.453c.855 2.765 2.132 4.775 3.926 5.838l.783-1.32zm-.272-5.913c.306.991.627 1.825.965 2.489.333.653.711 1.199 1.161 1.554l.951-1.205c-.197-.156-.454-.476-.744-1.046-.285-.559-.575-1.303-.867-2.246l-1.466.454zm2.121 4.039c.689.553 1.497.713 2.34.452l-.454-1.466c-.347.107-.627.056-.925-.183l-.961 1.197zm2.34.452c.842-.26 1.433-.834 1.683-1.679l-1.472-.435c-.098.329-.29.532-.665.648l.454 1.466zm1.682-1.675c.166-.551.168-1.217.073-1.947-.097-.742-.304-1.613-.611-2.604l-1.466.454c.291.943.473 1.723.555 2.349.083.637.054 1.055-.021 1.305l1.47.443zm-.538-4.551c-.307-.991-.625-1.825-.96-2.492-.329-.656-.701-1.204-1.139-1.567l-.979 1.182c.2.166.457.498.746 1.074.284.565.573 1.313.866 2.257l1.466-.454zm-2.116-4.072c-.693-.542-1.504-.68-2.346-.42l.454 1.467c.376-.117.662-.061.947.162l.945-1.209zm-2.346-.42c-.842.261-1.432.834-1.682 1.679l1.471.436c.098-.33.29-.532.665-.648l-.454-1.467zm-1.681 1.676c-.166.55-.169 1.217-.073 1.947.097.742.304 1.612.611 2.604l1.466-.454c-.292-.943-.473-1.723-.555-2.349-.084-.637-.055-1.055.02-1.305l-1.469-.443z"/>
      </g>
      <g class="20">
        <path fill="#fff" d="M659.432 701.011l1.639 5.295-19.984 6.186c-.403-2.069-.34-4.164.189-6.284.525-2.134 1.925-5.176 4.201-9.126 1.829-3.19 2.902-5.301 3.22-6.333.42-1.419.452-2.704.096-3.854-.393-1.271-1.04-2.138-1.939-2.601-.89-.48-1.936-.534-3.14-.162-1.19.369-2.026 1.02-2.508 1.955-.481.934-.519 2.25-.112 3.947l-5.856 1.191c-.634-3.243-.269-5.824 1.094-7.742 1.362-1.919 3.382-3.293 6.061-4.122 2.935-.908 5.486-.831 7.653.232 2.167 1.064 3.615 2.772 4.343 5.126.415 1.339.567 2.692.457 4.06-.101 1.351-.467 2.85-1.098 4.498-.418 1.092-1.271 2.742-2.559 4.949-1.288 2.207-2.092 3.657-2.411 4.348a10.619 10.619 0 00-.667 1.941l11.321-3.504zm3.83-28.11c2.881-.891 5.451-.561 7.71.993 2.688 1.836 4.905 5.574 6.651 11.214 1.742 5.627 2.02 9.973.834 13.037-.982 2.527-2.913 4.237-5.794 5.129-2.895.896-5.571.509-8.03-1.161-2.462-1.683-4.577-5.379-6.344-11.087-1.733-5.6-2.007-9.932-.821-12.996.981-2.527 2.913-4.237 5.794-5.129zm1.463 4.728a2.95 2.95 0 00-1.639 1.241c-.407.6-.584 1.514-.53 2.743.065 1.595.637 4.138 1.717 7.628 1.08 3.489 1.999 5.836 2.757 7.039.753 1.19 1.461 1.919 2.122 2.189a3.011 3.011 0 002.048.077 3.01 3.01 0 001.645-1.22c.403-.614.577-1.535.523-2.763-.06-1.583-.63-4.119-1.71-7.608-1.08-3.49-1.997-5.83-2.751-7.019-.757-1.203-1.474-1.938-2.149-2.203a2.87 2.87 0 00-2.033-.104z"/>
        <path fill="#000" d="M659.432 701.011l.733-.227-.227-.734-.733.227.227.734zm1.639 5.295l.227.733.733-.227-.227-.733-.733.227zm-19.984 6.186l-.754.147.164.839.817-.253-.227-.733zm.189-6.284l.745.186v-.003l-.745-.183zm4.201-9.126l.665.383v-.001l-.665-.382zm3.22-6.333l.733.226.003-.008-.736-.218zm-1.843-6.455l-.364.675.006.004.007.004.351-.683zm-5.76 5.74l.153.753.779-.159-.185-.772-.747.178zm-5.856 1.191l-.754.147.148.759.758-.154-.152-.752zm19.608-2.446l-.765-.061-.001.004.766.057zm-1.098 4.498l-.717-.275v.001l.717.274zm-2.559 4.949l.663.387-.663-.387zm-2.411 4.348l-.697-.321-.005.009.702.312zm-.667 1.941l-.748-.171-.297 1.298 1.272-.394-.227-.733zm10.588-3.278l1.639 5.296 1.466-.454-1.639-5.295-1.466.453zm2.145 4.336l-19.984 6.186.454 1.466 19.984-6.186-.454-1.466zm-19.004 6.772c-.381-1.955-.323-3.935.181-5.951l-1.49-.372c-.555 2.225-.623 4.433-.198 6.617l1.507-.294zm.181-5.954c.498-2.022 1.852-4.986 4.121-8.926l-1.33-.766c-2.282 3.961-3.729 7.081-4.281 9.326l1.49.366zm4.121-8.927c1.818-3.17 2.94-5.359 3.288-6.489l-1.467-.452c-.288.935-1.312 2.968-3.152 6.177l1.331.764zm3.291-6.497c.453-1.531.504-2.974.094-4.299l-1.467.454c.302.975.288 2.102-.099 3.409l1.472.436zm.094-4.299c-.435-1.403-1.186-2.472-2.322-3.056l-.702 1.365c.663.341 1.204 1.006 1.557 2.145l1.467-.454zm-2.308-3.049c-1.114-.602-2.383-.638-3.732-.22l.454 1.467c1.058-.328 1.883-.256 2.549.103l.729-1.35zm-3.732-.22c-1.348.417-2.37 1.185-2.963 2.336l1.365.703c.369-.717 1.019-1.253 2.052-1.572l-.454-1.467zm-2.963 2.336c-.606 1.176-.6 2.712-.176 4.478l1.493-.357c-.391-1.628-.31-2.724.048-3.418l-1.365-.703zm.417 3.547l-5.856 1.191.305 1.504 5.857-1.19-.306-1.505zm-4.95 1.796c-.61-3.122-.232-5.463.966-7.151l-1.251-.889c-1.527 2.15-1.879 4.97-1.222 8.334l1.507-.294zm.966-7.151c1.248-1.756 3.114-3.044 5.663-3.833l-.454-1.466c-2.808.869-4.982 2.329-6.46 4.41l1.251.889zm5.663-3.833c2.801-.867 5.141-.767 7.088.188l.676-1.378c-2.387-1.171-5.149-1.226-8.218-.276l.454 1.466zm7.088.188c1.973.969 3.281 2.507 3.948 4.664l1.466-.454c-.789-2.551-2.377-4.429-4.738-5.588l-.676 1.378zm3.948 4.664a9.945 9.945 0 01.425 3.772l1.53.123a11.47 11.47 0 00-.489-4.349l-1.466.454zm.424 3.776c-.094 1.257-.437 2.682-1.049 4.28l1.433.549c.651-1.698 1.039-3.271 1.147-4.715l-1.531-.114zm-1.049 4.281c-.394 1.03-1.219 2.633-2.505 4.836l1.326.774c1.29-2.211 2.171-3.907 2.613-5.062l-1.434-.548zm-2.505 4.836c-1.283 2.199-2.107 3.682-2.445 4.414l1.393.643c.301-.652 1.085-2.068 2.378-4.283l-1.326-.774zm-2.45 4.423a11.378 11.378 0 00-.713 2.082l1.496.342a9.93 9.93 0 01.62-1.8l-1.403-.624zm.262 2.986l11.321-3.504-.454-1.467-11.321 3.505.454 1.466zm22.634-31.354l-.434.632.001.002.433-.634zm7.485 24.251l.715.278.001-.001-.716-.277zm-13.824 3.968l-.433.634.002.001.431-.635zm-7.165-24.083l-.716-.278v.001l.716.277zm5.618.84l.635.43.006-.009-.641-.421zm-.53 2.743l.767-.031v-.003l-.767.034zm4.474 14.667l-.65.409.001.002.649-.411zm2.122 2.189l-.289.71.009.004.28-.714zm3.693-1.143l.635.43.007-.009-.642-.421zm.523-2.763l-.767.029v.004l.767-.033zm-4.461-14.627l-.649.409.001.001.648-.41zm-2.149-2.203l-.3.706.009.004.01.004.281-.714zm-3.269-4.098c2.682-.831 5.004-.514 7.049.891l.869-1.264c-2.474-1.702-5.293-2.047-8.372-1.094l.454 1.467zm7.05.893c2.468 1.685 4.619 5.214 6.351 10.807l1.466-.454c-1.76-5.687-4.043-9.634-6.951-11.621l-.866 1.268zm6.351 10.807c1.726 5.578 1.941 9.715.851 12.533l1.432.554c1.281-3.311.94-7.865-.817-13.541l-1.466.454zm.851 12.532c-.886 2.283-2.619 3.842-5.305 4.674l.454 1.466c3.076-.952 5.206-2.812 6.282-5.584l-1.431-.556zm-5.305 4.674c-2.677.828-5.11.473-7.371-1.063l-.863 1.27c2.656 1.804 5.575 2.222 8.688 1.259l-.454-1.466zm-7.37-1.062c-2.233-1.526-4.285-4.998-6.044-10.68l-1.466.454c1.775 5.734 3.952 9.654 6.644 11.494l.866-1.268zm-6.044-10.68c-1.718-5.549-1.929-9.674-.838-12.492l-1.432-.554c-1.281 3.31-.945 7.85.804 13.5l1.466-.454zm-.839-12.491c.887-2.283 2.62-3.842 5.306-4.673l-.454-1.467c-3.076.952-5.206 2.812-6.283 5.584l1.431.556zm6.315-1.413a3.724 3.724 0 00-2.054 1.554l1.283.842a2.186 2.186 0 011.225-.929l-.454-1.467zm-2.047 1.544c-.545.803-.718 1.918-.661 3.207l1.533-.067c-.051-1.167.129-1.881.398-2.279l-1.27-.861zm-.661 3.204c.068 1.705.668 4.332 1.75 7.825l1.466-.454c-1.079-3.487-1.623-5.945-1.683-7.432l-1.533.061zm1.75 7.825c1.078 3.484 2.022 5.922 2.84 7.221l1.299-.818c-.697-1.107-1.591-3.362-2.673-6.857l-1.466.454zm2.841 7.223c.77 1.214 1.586 2.123 2.482 2.488l.579-1.421c-.427-.174-1.026-.724-1.764-1.889l-1.297.822zm2.491 2.492a3.778 3.778 0 002.555.097l-.454-1.467a2.243 2.243 0 01-1.54-.059l-.561 1.429zm2.555.097a3.779 3.779 0 002.053-1.524l-1.27-.861c-.31.457-.715.756-1.237.918l.454 1.467zm2.06-1.533c.533-.813.705-1.927.648-3.218l-1.534.067c.052 1.166-.125 1.893-.398 2.309l1.284.842zm.648-3.214c-.064-1.692-.663-4.313-1.744-7.805l-1.466.454c1.079 3.487 1.62 5.938 1.676 7.41l1.534-.059zm-1.744-7.805c-1.078-3.484-2.02-5.916-2.835-7.203l-1.297.821c.692 1.093 1.584 3.34 2.666 6.836l1.466-.454zm-2.834-7.201c-.775-1.23-1.602-2.148-2.518-2.508l-.562 1.428c.434.171 1.04.721 1.781 1.898l1.299-.818zm-2.499-2.5a3.639 3.639 0 00-2.56-.132l.454 1.467a2.105 2.105 0 011.506.077l.6-1.412z"/>
      </g>
      <path fill="#000" d="M626.478 671.24l5.082-1.573c3.978-1.231 5.83-4.683 4.622-8.585-1.208-3.902-4.686-5.704-8.664-4.473l-5.082 1.574 4.042 13.057zm1.843-3.074l-2.628-8.489 2.532-.783c2.455-.76 4.623.446 5.406 2.977.784 2.532-.323 4.752-2.778 5.512l-2.532.783zm8.678-11.988l2.284-.707-.707-2.284-2.284.707.707 2.284zm3.335 10.773l2.284-.707-2.946-9.517-2.284.707 2.946 9.517zm8.722-2.408c2.646-.819 4.027-2.623 3.444-4.507-.518-1.675-1.851-2.139-5.154-1.826-1.426.108-1.96.002-2.084-.398-.17-.552.34-1.127 1.273-1.415.837-.26 1.734-.058 2.22.501l1.934-1.162c-1.011-1.314-2.916-1.808-4.744-1.243-2.303.713-3.479 2.37-2.931 4.141.465 1.503 1.622 1.938 4.513 1.71 1.838-.193 2.536-.096 2.689.399.23.742-.474 1.502-1.749 1.897-1.275.395-2.389.03-2.76-.898l-2.151.666c.724 2.07 2.931 2.931 5.5 2.135zm11.128-3.444c2.589-.802 4.075-3.076 3.709-5.674l-2.189.677c.103 1.345-.755 2.549-2.144 2.979-1.714.53-3.246-.309-3.805-2.118-.56-1.808.23-3.366 1.943-3.897 1.37-.424 2.728.053 3.403 1.158l2.189-.678c-1.167-2.288-3.666-3.287-6.217-2.497-3.083.954-4.534 3.614-3.603 6.621.931 3.008 3.631 4.383 6.714 3.429zm11.705-3.623c3.084-.955 4.534-3.615 3.603-6.622-.931-3.008-3.63-4.383-6.713-3.429-3.084.955-4.534 3.615-3.603 6.622.931 3.008 3.63 4.383 6.713 3.429zm-.624-2.018c-1.713.53-3.245-.31-3.805-2.118-.56-1.808.23-3.367 1.943-3.897 1.713-.53 3.245.31 3.805 2.118.56 1.808-.23 3.367-1.943 3.897zm13.904-12.814l-2.284.707 1.749 5.653c.389 1.257-.278 2.402-1.668 2.832-1.389.43-2.587-.138-2.976-1.394l-1.75-5.653-2.284.707 1.832 5.919c.719 2.323 2.948 3.322 5.536 2.521.933-.289 1.862-.993 2.289-1.772l.217.704 2.285-.707-2.946-9.517zm5.271 8.797l2.284-.707-1.75-5.653c-.389-1.256.279-2.401 1.669-2.831 1.389-.43 2.587.137 2.976 1.394l1.75 5.653 2.284-.707-1.833-5.92c-.718-2.322-2.947-3.322-5.536-2.52-.932.288-1.861.993-2.288 1.772l-.218-.705-2.284.707 2.946 9.517zm15.589-4.533c.609-.188 1.221-.503 1.535-.767l-.507-1.637-1.656.513c-.494.153-.937-.065-1.085-.541l-1.602-5.177 2.398-.742-.589-1.904-2.398.743-1.096-3.541-2.284.707 1.096 3.541-1.523.471.589 1.903 1.523-.471 1.602 5.177c.501 1.618 2.112 2.309 3.997 1.725z" class="Discount"/>
    </g>
    <path fill="#000" d="M399.183 395L390 387h19l-9.817 8z" class="Vector 550"/>
    <g class="Group 1118">
      <path fill="#84E9FF" fill-rule="evenodd" d="M53.842 300.696c-4.556 3.431-7.186 10.712-5.874 16.263l15.985 67.625c.348 1.472.938 2.674 1.702 3.582 1.038 1.551 2.371 2.718 3.94 3.401l4.492 1.958c3.192 1.391 7.052.644 10.643-2.06l61.828-46.556c7.207-5.427 11.293-17.017 9.047-25.665l-15.165-58.407c-.787-3.033-2.298-5.415-4.343-6.847l-4.968-3.481a8.174 8.174 0 00-3.246-1.363c-2.029-1.042-4.619-.723-7.147 1.18l-66.894 50.37z" class="Union_10" clip-rule="evenodd"/>
      <path fill="#45DEFF" d="M65.727 389.041c1.245 1.245 5.057.644 6.885-.732l65.068-48.996c10.581-7.732 10.345-13.855 8.408-21.317l-16.264-65.218c-.679-2.617-2.652-4.2-4.761-4.243l-.157-.11c1.651-.264 3.684.255 5.011 1.185l6.742 4.838c1.764 1.236 2.746 3.522 3.426 6.139l15.858 61.078c1.938 7.463-1.587 17.463-7.806 22.146l-64.27 48.395c-3.1 2.333-6.43 2.978-9.184 1.778l-5.888-2.566a7.262 7.262 0 01-1.636-.991c-.272-.144-1.186-1.185-1.432-1.386z" class="Subtract_19"/>
      <g class="Group 1104_3">
        <path fill="#fff" stroke="#000" stroke-width="1.147" d="M90.353 357.637l14.022-81.615-6.443 4.851-14.361 81.871 6.782-5.107z" class="Vector 538_6"/>
        <g class="Subtract_20">
          <path fill="#fff" fill-rule="evenodd" d="M115.445 332.373c6.368-4.794 9.94-14.944 7.979-22.669-1.96-7.726-8.711-10.102-15.078-5.308-6.368 4.795-9.94 14.944-7.98 22.67 1.961 7.726 8.712 10.102 15.079 5.307zm-1.671-6.582c3.371-2.539 5.262-7.912 4.224-12.002-1.037-4.09-4.612-5.348-7.982-2.81-3.371 2.538-5.263 7.912-4.225 12.002 1.038 4.09 4.612 5.348 7.983 2.81z" clip-rule="evenodd"/>
          <path fill="#000" d="M122.966 310.049c1.883 7.418-1.548 17.164-7.662 21.768l.282 1.113c6.621-4.986 10.335-15.539 8.297-23.571l-.917.69zm-14.479-5.097c6.114-4.603 12.597-2.322 14.479 5.097l.917-.69c-2.039-8.033-9.058-10.504-15.679-5.519l.283 1.112zm-7.662 21.769c-1.883-7.419 1.548-17.165 7.662-21.769l-.283-1.112c-6.62 4.985-10.334 15.538-8.296 23.571l.917-.69zm14.479 5.096c-6.114 4.604-12.597 2.322-14.479-5.096l-.917.69c2.039 8.033 9.058 10.504 15.678 5.519l-.282-1.113zm2.236-17.683c.96 3.783-.789 8.753-3.907 11.1l.282 1.113c3.624-2.729 5.658-8.506 4.542-12.903l-.917.69zm-7.383-2.599c3.117-2.347 6.423-1.184 7.383 2.599l.917-.69c-1.116-4.397-4.959-5.75-8.583-3.021l.283 1.112zm-3.907 11.101c-.96-3.783.789-8.753 3.907-11.101l-.283-1.112c-3.624 2.729-5.657 8.506-4.541 12.903l.917-.69zm7.383 2.598c-3.118 2.348-6.423 1.185-7.383-2.598l-.917.69c1.116 4.397 4.958 5.75 8.582 3.021l-.282-1.113z"/>
        </g>
        <g class="Subtract_21">
          <path fill="#fff" fill-rule="evenodd" d="M79.968 332.625c6.367-4.795 9.94-14.944 7.979-22.67-1.96-7.726-8.712-10.102-15.079-5.307-6.367 4.794-9.94 14.944-7.98 22.669 1.961 7.726 8.712 10.102 15.08 5.308zm-1.671-6.583c3.37-2.538 5.262-7.912 4.224-12.002-1.038-4.09-4.612-5.348-7.983-2.81-3.371 2.539-5.262 7.912-4.224 12.002 1.038 4.09 4.612 5.348 7.983 2.81z" clip-rule="evenodd"/>
          <path fill="#000" d="M87.489 310.3c1.882 7.419-1.548 17.165-7.663 21.769l.283 1.112c6.62-4.985 10.335-15.538 8.296-23.571l-.916.69zm-14.48-5.096c6.114-4.604 12.597-2.322 14.48 5.096l.916-.69c-2.038-8.033-9.058-10.504-15.678-5.519l.282 1.113zm-7.662 21.768c-1.882-7.418 1.548-17.164 7.662-21.768l-.282-1.113c-6.62 4.986-10.335 15.539-8.297 23.571l.917-.69zm14.48 5.097c-6.115 4.603-12.597 2.322-14.48-5.097l-.916.69c2.038 8.033 9.057 10.504 15.678 5.519l-.282-1.112zm2.236-17.684c.96 3.783-.79 8.753-3.907 11.101l.282 1.112c3.624-2.729 5.657-8.506 4.541-12.903l-.916.69zm-7.384-2.598c3.118-2.348 6.424-1.185 7.383 2.598l.917-.69c-1.116-4.397-4.958-5.75-8.582-3.021l.282 1.113zm-3.907 11.1c-.96-3.783.79-8.753 3.907-11.1l-.282-1.113c-3.624 2.729-5.657 8.506-4.542 12.903l.917-.69zm7.383 2.599c-3.117 2.347-6.423 1.184-7.383-2.599l-.917.69c1.116 4.397 4.959 5.75 8.583 3.021l-.282-1.112z"/>
        </g>
      </g>
      <path fill="#03C9F4" d="M135.809 276.105l-7.426-27.723 10.396 7.921 7.426 27.228-10.396-7.426z" class="Vector 543_2"/>
      <path fill="#03C9F4" d="M75.906 394.424l-8.911-4.456c1.584 0 1.98.495 4.95-.99l25.248-18.317 9.406 4.456-22.277 16.337c-3.96 2.772-5.446 3.465-8.416 2.97z" class="Vector 544_2"/>
      <path stroke="#8AFFFF" stroke-width="1.147" d="M65.758 389.488c.8 1.061 3.4 2.556 7.406.04l67.468-50.804c4.708-3.544 9.105-10.12 7.057-18.064l-17.326-68.317c-1.217-4.077-4.854-5.152-6.436-3.961" class="Vector 545_2"/>
      <path stroke="#FFF0F0" stroke-width="1.147" d="M65.447 388.668c.789 1.048 3.368 2.514 7.37-.007l67.469-50.803c4.708-3.545 8.324-9.84 6.335-17.705l-17.043-67.85c-1.185-4.035-4.317-4.764-5.899-3.573" class="Vector 539_3"/>
      <path fill="#000" d="M47.643 315.581l-.558.132.558-.132zm5.069-14.033l-.345-.458.345.458zm11.568 84.415l-.559.132.559-.132zm3.948 4.689l.366-.441-.099-.082-.124-.032-.143.555zm1.745 1.079l-.23.526.23-.526zm4.803 2.094l.23-.526-.23.526zm9.183-1.778l-.345-.459.345.459zm64.403-48.495l.345.458-.345-.458zm7.806-22.146l-.555.145.555-.145zm-15.906-61.261l.555-.145-.555.145zm-3.68-5.861l.334-.466-.334.466zm-7.334-5.26l-.334.467.334-.467zm-1.895-.851l-.176.546.026.008.026.006.124-.56zm-5.484 1.301l.345.458-.345-.458zm-73.668 65.975c-.535-2.264-.27-4.917.617-7.375.888-2.459 2.38-4.668 4.239-6.067l-.69-.917c-2.073 1.561-3.682 3.974-4.628 6.594-.947 2.62-1.251 5.503-.654 8.029l1.116-.264zm16.637 70.382l-16.637-70.382-1.116.264 16.636 70.382 1.117-.264zm3.533 4.266c-1.594-.409-2.956-1.823-3.533-4.266l-1.117.264c.648 2.738 2.25 4.57 4.364 5.113l.286-1.111zm1.83 1.108a6.725 6.725 0 01-1.607-.994l-.732.883a7.845 7.845 0 001.881 1.163l.459-1.052zm4.804 2.094l-4.803-2.094-.459 1.052 4.804 2.094.458-1.052zm8.609-1.711c-2.99 2.251-6.1 2.804-8.609 1.711l-.458 1.052c3 1.307 6.549.57 9.757-1.846l-.69-.917zm64.403-48.495l-64.403 48.495.69.917 64.403-48.495-.69-.917zm7.596-21.542c.934 3.596.557 7.843-.83 11.78-1.388 3.936-3.766 7.503-6.766 9.762l.69.917c3.219-2.423 5.713-6.197 7.158-10.298 1.445-4.1 1.862-8.584.859-12.45l-1.111.289zm-15.906-61.262l15.906 61.262 1.111-.289L140.817 260l-1.11.289zm-3.459-5.539c1.596 1.145 2.813 3.052 3.459 5.539l1.11-.289c-.695-2.678-2.036-4.845-3.901-6.182l-.668.932zm-7.334-5.259l7.334 5.259.668-.932-7.333-5.26-.669.933zm-1.685-.758c.591.13 1.157.379 1.685.758l.669-.933a5.73 5.73 0 00-2.106-.946l-.248 1.121zm-5.015 1.199c1.799-1.354 3.555-1.667 4.963-1.213l.352-1.092c-1.852-.597-3.991-.128-6.005 1.389l.69.916zm-69.157 52.075l69.157-52.075-.69-.916-69.157 52.074.69.917z" class="Union_11"/>
    </g>
  </g>
  <defs>
    <clipPath id="clip0_2_236" class="clip0_2_236">
      <path fill="#fff" d="M0 0h800v800H0z"/>
    </clipPath>
    <clipPath id="clip1_2_236" class="clip1_2_236">
      <path fill="#fff" d="M0 0h31v31H0z" transform="translate(294 15)"/>
    </clipPath>
    <pattern id="pattern0" width="1" height="1" class="pattern0" patternContentUnits="objectBoundingBox">
      <use transform="matrix(.00723 0 0 .00723 -.01 0)" xlink:href="#image0_2_236"/>
    </pattern>
  </defs>
</svg>
